<svg width="55" height="56" viewBox="0 0 55 56" fill="none" xmlns="http://www.w3.org/2000/svg">
<circle cx="27.5" cy="28" r="27.5" fill="black"/>
<path d="M33.2842 26.5795C33.2607 23.9699 35.4156 22.717 35.5083 22.6589C34.2974 20.8858 32.4081 20.6387 31.7396 20.609C30.1333 20.4472 28.6012 21.5567 27.7857 21.5567C26.9702 21.5567 25.7123 20.6362 24.3828 20.6622C22.627 20.6869 21.0157 21.6815 20.1137 23.2458C18.2949 26.4016 19.6467 31.0796 21.4222 33.6386C22.2872 34.8915 23.3189 36.2989 24.6744 36.2482C25.9829 36.1976 26.4772 35.4043 28.0563 35.4043C29.6354 35.4043 30.079 36.2482 31.4616 36.2272C32.8665 36.1976 33.7586 34.9446 34.6162 33.6917C35.23 32.7862 35.7114 31.7976 36.0458 30.7559C36.021 30.7448 33.3101 29.7044 33.2842 26.5795Z" fill="white"/>
<path d="M30.6861 18.9167C31.4077 18.0518 31.8933 16.8322 31.7599 15.625C30.7232 15.6645 29.4666 16.3169 28.724 17.1856C28.0555 17.9603 27.4686 19.1972 27.628 20.3784C28.782 20.4661 29.9682 19.7903 30.6861 18.9167Z" fill="white"/>
</svg>
