<svg width="55" height="56" viewBox="0 0 55 56" fill="none" xmlns="http://www.w3.org/2000/svg">
<path d="M55 28.0001C55 12.8122 42.6878 0.499973 27.5 0.499973C12.3122 0.499973 0 12.8122 0 28.0001C0 41.7262 10.0564 53.1031 23.2031 55.1661V35.9493H16.2207V28.0001H23.2031V21.9415C23.2031 15.0493 27.3087 11.2422 33.5903 11.2422C36.599 11.2422 39.7461 11.7793 39.7461 11.7793V18.5469H36.2784C32.8622 18.5469 31.7969 20.6667 31.7969 22.8415V28.0001H39.4238L38.2046 35.9493H31.7969V55.1661C44.9436 53.1031 55 41.7262 55 28.0001Z" fill="#1877F2"/>
<path d="M38.2046 35.9491L39.4238 27.9999H31.7969V22.8413C31.7969 20.6665 32.8622 18.5467 36.2784 18.5467H39.7461V11.7791C39.7461 11.7791 36.599 11.242 33.5903 11.242C27.3087 11.242 23.2031 15.049 23.2031 21.9413V27.9999H16.2207V35.9491H23.2031V55.1659C24.6032 55.3856 26.0382 55.5 27.5 55.5C28.9618 55.5 30.3968 55.3856 31.7969 55.1659V35.9491H38.2046Z" fill="white"/>
</svg>
