<svg width="57" height="58" viewBox="0 0 57 58" fill="none" xmlns="http://www.w3.org/2000/svg">
<circle cx="28.5" cy="29" r="28" fill="white" stroke="#BDBDBD"/>
<g clip-path="url(#clip0_1032_4745)">
<path fill-rule="evenodd" clip-rule="evenodd" d="M40.3897 28.9408C40.3907 28.1155 40.3178 27.2918 40.1717 26.4795H28.8398V31.1358H35.3156C35.1818 31.8722 34.9 32.5738 34.4874 33.1982C34.0747 33.8226 33.5398 34.3569 32.9148 34.7688V37.7963H36.8021C39.0788 35.677 40.3897 32.592 40.3897 28.9408Z" fill="#4285F4"/>
<path fill-rule="evenodd" clip-rule="evenodd" d="M28.8405 40.6875C32.089 40.6875 34.8137 39.6098 36.8028 37.7721L32.9155 34.7446C31.7031 35.5287 30.284 35.9325 28.8405 35.9041C27.3408 35.8857 25.8847 35.3973 24.6774 34.5077C23.47 33.618 22.5721 32.372 22.1104 30.9451H18.0898V34.0634C19.0915 36.0559 20.6273 37.7307 22.5257 38.901C24.4241 40.0712 26.6104 40.6908 28.8405 40.6906V40.6875Z" fill="#34A853"/>
<path fill-rule="evenodd" clip-rule="evenodd" d="M22.1106 30.942C21.8616 30.2056 21.7338 29.4336 21.7322 28.6563C21.7338 27.8789 21.8616 27.1069 22.1106 26.3705V23.2522H18.0901C17.2491 24.9294 16.8116 26.78 16.8125 28.6563C16.8116 30.5326 17.2491 32.3831 18.0901 34.0603L22.1106 30.942Z" fill="#FBBC05"/>
<path fill-rule="evenodd" clip-rule="evenodd" d="M28.8409 21.4115C30.5467 21.3846 32.1945 22.0307 33.4275 23.2098L36.8788 19.7585C34.7011 17.7132 31.8162 16.5902 28.8288 16.6251C26.5986 16.6248 24.4124 17.2444 22.514 18.4146C20.6156 19.5849 19.0798 21.2598 18.0781 23.2522L22.0986 26.3705C22.5604 24.9437 23.4583 23.6976 24.6656 22.808C25.873 21.9183 27.3291 21.4299 28.8288 21.4115H28.8409Z" fill="#EA4335"/>
</g>
<defs>
<clipPath id="clip0_1032_4745">
<rect width="23.5811" height="24.0625" fill="white" transform="translate(16.8125 16.625)"/>
</clipPath>
</defs>
</svg>
