<svg width="31" height="22" viewBox="0 0 31 22" fill="none" xmlns="http://www.w3.org/2000/svg">
<path d="M13.8613 3.49951H23.2363C24.3841 3.49945 25.4886 3.938 26.3237 4.72544C27.1588 5.51287 27.6615 6.58967 27.7288 7.73551L27.7363 7.99951V9.49951L29.2363 9.52651C29.6028 9.52638 29.9567 9.66043 30.2311 9.90334C30.5055 10.1463 30.6815 10.4812 30.7258 10.845L30.7378 11.025V14.025C30.7382 14.3883 30.6067 14.7393 30.3678 15.013C30.1289 15.2867 29.7988 15.4643 29.4388 15.513L29.2378 15.5265L27.7363 15.4995V16.9995C27.7364 18.1473 27.2978 19.2518 26.5104 20.0869C25.723 20.922 24.6462 21.4247 23.5003 21.492L23.2363 21.4995H9.73333C9.44829 21.4994 9.17392 21.3911 8.96564 21.1965C8.75737 21.002 8.63072 20.7356 8.61129 20.4512C8.59186 20.1668 8.6811 19.8857 8.86098 19.6646C9.04085 19.4434 9.29795 19.2989 9.58033 19.26L9.73333 19.2495H23.2363C23.7954 19.2495 24.3345 19.0414 24.7485 18.6656C25.1625 18.2899 25.4218 17.7735 25.4758 17.217L25.4863 16.9995V7.99951C25.4863 7.44042 25.2782 6.90136 24.9025 6.48735C24.5267 6.07334 24.0103 5.81406 23.4538 5.76001L23.2363 5.74951H13.8613C13.5763 5.74942 13.3019 5.64115 13.0936 5.44655C12.8854 5.25196 12.7587 4.98556 12.7393 4.70119C12.7199 4.41682 12.8091 4.13567 12.989 3.91456C13.1689 3.69345 13.426 3.54886 13.7083 3.51001L13.8613 3.49951H23.2363H13.8613ZM7.11283 10.9965V20.3745C7.11017 20.6578 7.00076 20.9296 6.80645 21.1357C6.61213 21.3418 6.34722 21.467 6.06461 21.4863C5.782 21.5057 5.50251 21.4177 5.28195 21.2399C5.06139 21.0622 4.91601 20.8078 4.87483 20.5275L4.86433 20.3745V10.9965H3.36133C2.66539 10.9965 1.99794 10.7202 1.5057 10.2282C1.01346 9.73624 0.736726 9.06894 0.736328 8.37301V4.62451C0.736328 4.32614 0.854854 4.04 1.06583 3.82902C1.27681 3.61804 1.56296 3.49951 1.86133 3.49951H2.98783V1.62451C2.98784 1.35266 3.08629 1.09 3.26498 0.885117C3.44367 0.680234 3.6905 0.546985 3.95983 0.510013L4.11283 0.499513C4.38468 0.499524 4.64734 0.597977 4.85222 0.776663C5.05711 0.95535 5.19036 1.20218 5.22733 1.47151L5.23783 1.62451V3.49951H6.73033V1.62451C6.73044 1.35221 6.82931 1.08918 7.00861 0.884231C7.18791 0.679282 7.43545 0.54632 7.70533 0.510013L7.85533 0.499513C8.12744 0.499161 8.39046 0.59745 8.59566 0.77617C8.80086 0.95489 8.93432 1.20193 8.97133 1.47151L8.98183 1.62451L8.98033 3.49951H10.1173C10.4157 3.49951 10.7018 3.61804 10.9128 3.82902C11.1238 4.04 11.2423 4.32614 11.2423 4.62451V8.37301C11.2423 9.0692 10.9658 9.73688 10.4735 10.2292C9.9812 10.7214 9.31352 10.998 8.61733 10.998L7.11283 10.9965V20.3745V10.9965ZM8.99233 5.74951H2.98633V8.37301C2.98633 8.58001 3.15433 8.74801 3.36133 8.74801H8.61733C8.71679 8.74801 8.81217 8.7085 8.88249 8.63818C8.95282 8.56785 8.99233 8.47247 8.99233 8.37301V5.74951Z" fill="#4F4F4F"/>
</svg>
