<svg width="804" height="451" viewBox="0 0 804 451" fill="none" xmlns="http://www.w3.org/2000/svg">
<g filter="url(#filter0_d_4070_3278)">
<rect x="30.5" y="30.4121" width="743" height="390" rx="30" fill="white"/>
</g>
<path d="M74.273 125.218V126.406C74.273 128.223 73.3429 130.012 71.082 130.742L72.0694 132.273C74.6737 131.4 75.8614 129.067 75.8614 126.406V125.218H74.273ZM74.6737 125.218V126.32C74.6737 128.896 75.7326 131.028 78.1795 131.872L79.1669 130.384C77.0634 129.711 76.2048 128.08 76.2048 126.32V125.218H74.6737ZM80.3832 124.531V132.287H82.2863V124.531H80.3832ZM77.7932 132.63C74.9885 132.63 73.2571 133.589 73.2571 135.206C73.2571 136.837 74.9885 137.782 77.7932 137.782C80.5978 137.782 82.3293 136.837 82.3293 135.206C82.3293 133.589 80.5978 132.63 77.7932 132.63ZM77.7932 134.104C79.5246 134.104 80.4404 134.462 80.4404 135.206C80.4404 135.95 79.5246 136.322 77.7932 136.322C76.076 136.322 75.1602 135.95 75.1602 135.206C75.1602 134.462 76.076 134.104 77.7932 134.104ZM77.9649 126.935V128.481H80.655V126.935H77.9649Z" fill="#4F4F4F"/>
<path d="M90.4702 126.191V127.622H93.6755V126.191H90.4702ZM90.4702 128.609V130.04H93.6755V128.609H90.4702ZM93.2605 124.531V131.328H95.1637V124.531H93.2605ZM86.4063 131.843V133.303H93.2749V134.018H86.4206V137.066H88.3095V135.392H95.1637V131.843H86.4063ZM86.4206 136.165V137.639H95.5358V136.165H86.4206ZM84.632 125.075V130.97H90.8995V125.075H89.0393V126.62H86.5208V125.075H84.632ZM86.5208 128.051H89.0393V129.482H86.5208V128.051Z" fill="#4F4F4F"/>
<path d="M404.422 126.377V127.894H408.314V126.377H404.422ZM404.422 129.597V131.114H408.314V129.597H404.422ZM407.613 124.546V134.233H409.516V124.546H407.613ZM400.773 136.036V137.553H409.817V136.036H400.773ZM400.773 133.274V136.823H402.676V133.274H400.773ZM402.09 125.318C400.115 125.318 398.584 126.749 398.584 128.753C398.584 130.727 400.115 132.172 402.09 132.172C404.05 132.172 405.581 130.727 405.581 128.753C405.581 126.749 404.05 125.318 402.09 125.318ZM402.09 126.992C403.049 126.992 403.778 127.651 403.778 128.753C403.778 129.854 403.049 130.513 402.09 130.513C401.117 130.513 400.401 129.854 400.401 128.753C400.401 127.651 401.117 126.992 402.09 126.992Z" fill="#4F4F4F"/>
<path d="M411.805 130.656V132.187H412.821C415.354 132.187 416.713 132.144 418.258 131.858L418.072 130.355C416.57 130.613 415.282 130.656 412.821 130.656H411.805ZM411.79 125.218V126.735H415.726V127.937H411.805V131.786H413.694V129.339H417.614V125.218H411.79ZM420.491 124.546V132.587H422.394V124.546H420.491ZM418.373 126.291V127.808H420.848V126.291H418.373ZM418.373 129.039V130.556H420.848V129.039H418.373ZM417.915 132.816C415.096 132.816 413.379 133.732 413.379 135.321C413.379 136.909 415.096 137.825 417.915 137.825C420.734 137.825 422.451 136.909 422.451 135.321C422.451 133.732 420.734 132.816 417.915 132.816ZM417.915 134.247C419.661 134.247 420.562 134.591 420.562 135.321C420.562 136.05 419.661 136.394 417.915 136.394C416.183 136.394 415.282 136.05 415.282 135.321C415.282 134.591 416.183 134.247 417.915 134.247Z" fill="#4F4F4F"/>
<path d="M433.754 124.531V137.782H435.557V124.531H433.754ZM431.98 129.625V131.157H434.184V129.625H431.98ZM430.792 124.76V137.152H432.552V124.76H430.792ZM424.553 133.231V134.791H425.483C427.186 134.791 428.589 134.748 430.191 134.433L430.048 132.888C428.474 133.174 427.115 133.231 425.483 133.231H424.553ZM424.553 126.062V133.975H426.442V127.593H429.447V126.062H424.553Z" fill="#4F4F4F"/>
<path d="M298.486 257.812V258.858H292.439V258.04L295.865 254.734C296.282 254.333 296.562 253.989 296.707 253.7C296.851 253.404 296.923 253.107 296.923 252.81C296.923 252.37 296.767 252.029 296.454 251.788C296.15 251.54 295.709 251.416 295.132 251.416C294.202 251.416 293.485 251.72 292.98 252.329L292.162 251.62C292.491 251.219 292.92 250.907 293.449 250.682C293.986 250.458 294.583 250.346 295.24 250.346C296.122 250.346 296.823 250.558 297.344 250.983C297.865 251.4 298.125 251.969 298.125 252.69C298.125 253.139 298.029 253.564 297.837 253.965C297.645 254.365 297.28 254.822 296.743 255.335L294.17 257.812H298.486Z" fill="#4F4F4F"/>
<path d="M302.697 253.977C303.522 254.057 304.152 254.313 304.584 254.746C305.017 255.171 305.234 255.716 305.234 256.381C305.234 256.862 305.113 257.299 304.873 257.692C304.632 258.076 304.272 258.385 303.791 258.617C303.318 258.842 302.737 258.954 302.048 258.954C301.446 258.954 300.869 258.866 300.316 258.69C299.763 258.505 299.31 258.253 298.958 257.932L299.511 256.982C299.799 257.255 300.168 257.475 300.617 257.644C301.066 257.804 301.543 257.884 302.048 257.884C302.673 257.884 303.158 257.752 303.502 257.487C303.855 257.223 304.031 256.858 304.031 256.393C304.031 255.928 303.859 255.568 303.514 255.311C303.17 255.055 302.649 254.926 301.951 254.926H301.278V254.085L303.394 251.488H299.342V250.442H304.897V251.259L302.697 253.977Z" fill="#4F4F4F"/>
<path d="M309.518 253.977C310.344 254.057 310.973 254.313 311.406 254.746C311.839 255.171 312.055 255.716 312.055 256.381C312.055 256.862 311.935 257.299 311.695 257.692C311.454 258.076 311.093 258.385 310.612 258.617C310.14 258.842 309.558 258.954 308.869 258.954C308.268 258.954 307.691 258.866 307.138 258.69C306.585 258.505 306.132 258.253 305.779 257.932L306.332 256.982C306.621 257.255 306.99 257.475 307.438 257.644C307.887 257.804 308.364 257.884 308.869 257.884C309.494 257.884 309.979 257.752 310.324 257.487C310.677 257.223 310.853 256.858 310.853 256.393C310.853 255.928 310.681 255.568 310.336 255.311C309.991 255.055 309.47 254.926 308.773 254.926H308.1V254.085L310.216 251.488H306.164V250.442H311.719V251.259L309.518 253.977Z" fill="#4F4F4F"/>
<path d="M313.982 257.283C314.207 257.283 314.391 257.363 314.535 257.523C314.687 257.676 314.764 257.868 314.764 258.1C314.764 258.221 314.748 258.337 314.715 258.449C314.691 258.561 314.639 258.734 314.559 258.966L313.994 260.637H313.237L313.682 258.846C313.529 258.79 313.405 258.698 313.309 258.569C313.221 258.433 313.177 258.277 313.177 258.1C313.177 257.86 313.253 257.664 313.405 257.511C313.557 257.359 313.75 257.283 313.982 257.283Z" fill="#4F4F4F"/>
<path d="M318.305 253.796C319.507 253.796 320.389 254.025 320.95 254.482C321.519 254.93 321.804 255.548 321.804 256.333C321.804 256.83 321.683 257.279 321.443 257.68C321.211 258.072 320.854 258.385 320.373 258.617C319.9 258.842 319.315 258.954 318.618 258.954C318.025 258.954 317.451 258.866 316.898 258.69C316.345 258.505 315.888 258.253 315.528 257.932L316.081 256.982C316.369 257.255 316.738 257.475 317.187 257.644C317.636 257.804 318.109 257.884 318.606 257.884C319.239 257.884 319.728 257.752 320.072 257.487C320.425 257.215 320.601 256.846 320.601 256.381C320.601 255.876 320.409 255.496 320.024 255.239C319.64 254.975 318.982 254.842 318.053 254.842H316.141L316.586 250.442H321.335V251.488H317.596L317.367 253.796H318.305Z" fill="#4F4F4F"/>
<path d="M326.243 258.954C325.578 258.954 324.984 258.786 324.463 258.449C323.95 258.104 323.546 257.608 323.249 256.958C322.953 256.309 322.804 255.54 322.804 254.65C322.804 253.76 322.953 252.991 323.249 252.342C323.546 251.692 323.95 251.199 324.463 250.863C324.984 250.518 325.578 250.346 326.243 250.346C326.9 250.346 327.485 250.518 327.998 250.863C328.519 251.199 328.928 251.692 329.224 252.342C329.521 252.991 329.669 253.76 329.669 254.65C329.669 255.54 329.521 256.309 329.224 256.958C328.928 257.608 328.519 258.104 327.998 258.449C327.485 258.786 326.9 258.954 326.243 258.954ZM326.243 257.884C326.916 257.884 327.453 257.608 327.854 257.054C328.263 256.501 328.467 255.7 328.467 254.65C328.467 253.6 328.263 252.798 327.854 252.245C327.453 251.692 326.916 251.416 326.243 251.416C325.562 251.416 325.016 251.692 324.608 252.245C324.207 252.798 324.007 253.6 324.007 254.65C324.007 255.7 324.207 256.501 324.608 257.054C325.016 257.608 325.562 257.884 326.243 257.884Z" fill="#4F4F4F"/>
<path d="M334.262 258.954C333.597 258.954 333.004 258.786 332.483 258.449C331.97 258.104 331.565 257.608 331.268 256.958C330.972 256.309 330.823 255.54 330.823 254.65C330.823 253.76 330.972 252.991 331.268 252.342C331.565 251.692 331.97 251.199 332.483 250.863C333.004 250.518 333.597 250.346 334.262 250.346C334.919 250.346 335.504 250.518 336.017 250.863C336.538 251.199 336.947 251.692 337.244 252.342C337.54 252.991 337.689 253.76 337.689 254.65C337.689 255.54 337.54 256.309 337.244 256.958C336.947 257.608 336.538 258.104 336.017 258.449C335.504 258.786 334.919 258.954 334.262 258.954ZM334.262 257.884C334.935 257.884 335.472 257.608 335.873 257.054C336.282 256.501 336.486 255.7 336.486 254.65C336.486 253.6 336.282 252.798 335.873 252.245C335.472 251.692 334.935 251.416 334.262 251.416C333.581 251.416 333.036 251.692 332.627 252.245C332.226 252.798 332.026 253.6 332.026 254.65C332.026 255.7 332.226 256.501 332.627 257.054C333.036 257.608 333.581 257.884 334.262 257.884Z" fill="#4F4F4F"/>
<path d="M345.548 251.136V251.908H348.511V251.136H345.548ZM345.548 253.18V253.941H348.534V253.18H345.548ZM348.148 249.479V255.553H349.09V249.479H348.148ZM341.119 250.251V254.815H345.809V250.251H341.119ZM344.878 251.011V254.066H342.039V251.011H344.878ZM345.718 255.849C343.595 255.849 342.289 256.564 342.289 257.79C342.289 259.017 343.595 259.721 345.718 259.721C347.83 259.721 349.136 259.017 349.136 257.79C349.136 256.564 347.83 255.849 345.718 255.849ZM345.718 256.598C347.262 256.598 348.205 257.041 348.205 257.79C348.205 258.54 347.262 258.983 345.718 258.983C344.174 258.983 343.231 258.54 343.231 257.79C343.231 257.041 344.174 256.598 345.718 256.598Z" fill="#4F4F4F"/>
<path d="M301.164 229.602V230.996L296.804 240.823H294.575L298.791 231.365H294.383V233.273H292.443V229.602H301.164Z" fill="#FF8A00"/>
<path d="M306.821 240.983C305.923 240.983 305.121 240.759 304.416 240.31C303.711 239.851 303.155 239.188 302.749 238.322C302.343 237.446 302.14 236.409 302.14 235.212C302.14 234.015 302.343 232.984 302.749 232.119C303.155 231.242 303.711 230.58 304.416 230.131C305.121 229.671 305.923 229.441 306.821 229.441C307.718 229.441 308.52 229.671 309.225 230.131C309.941 230.58 310.502 231.242 310.908 232.119C311.315 232.984 311.518 234.015 311.518 235.212C311.518 236.409 311.315 237.446 310.908 238.322C310.502 239.188 309.941 239.851 309.225 240.31C308.52 240.759 307.718 240.983 306.821 240.983ZM306.821 239.172C307.622 239.172 308.253 238.841 308.712 238.178C309.182 237.515 309.418 236.527 309.418 235.212C309.418 233.898 309.182 232.909 308.712 232.247C308.253 231.584 307.622 231.253 306.821 231.253C306.03 231.253 305.399 231.584 304.929 232.247C304.469 232.909 304.24 233.898 304.24 235.212C304.24 236.527 304.469 237.515 304.929 238.178C305.399 238.841 306.03 239.172 306.821 239.172Z" fill="#FF8A00"/>
<path d="M313.988 240.935C313.625 240.935 313.315 240.812 313.059 240.567C312.802 240.31 312.674 239.989 312.674 239.605C312.674 239.209 312.797 238.889 313.043 238.643C313.299 238.397 313.614 238.274 313.988 238.274C314.362 238.274 314.672 238.397 314.918 238.643C315.175 238.889 315.303 239.209 315.303 239.605C315.303 239.989 315.175 240.31 314.918 240.567C314.662 240.812 314.352 240.935 313.988 240.935Z" fill="#FF8A00"/>
<path d="M321.585 234.235C322.622 234.363 323.413 234.715 323.958 235.293C324.503 235.87 324.775 236.591 324.775 237.457C324.775 238.109 324.61 238.702 324.278 239.236C323.947 239.77 323.445 240.198 322.772 240.519C322.109 240.828 321.297 240.983 320.335 240.983C319.533 240.983 318.759 240.871 318.011 240.647C317.273 240.412 316.643 240.091 316.119 239.685L317.017 238.066C317.423 238.408 317.914 238.68 318.491 238.883C319.079 239.076 319.683 239.172 320.303 239.172C321.04 239.172 321.617 239.022 322.034 238.723C322.462 238.413 322.675 237.996 322.675 237.473C322.675 236.949 322.472 236.543 322.066 236.254C321.671 235.955 321.062 235.806 320.239 235.806H319.213V234.379L321.762 231.349H316.664V229.602H324.311V230.996L321.585 234.235Z" fill="#FF8A00"/>
<path d="M328.483 235.645C327.681 235.645 327.035 235.362 326.543 234.796C326.051 234.229 325.806 233.486 325.806 232.567C325.806 231.648 326.051 230.906 326.543 230.339C327.035 229.773 327.681 229.489 328.483 229.489C329.284 229.489 329.931 229.773 330.422 230.339C330.925 230.895 331.176 231.638 331.176 232.567C331.176 233.497 330.925 234.245 330.422 234.812C329.931 235.367 329.284 235.645 328.483 235.645ZM335.216 229.602H336.787L329.124 240.823H327.553L335.216 229.602ZM328.483 234.523C328.921 234.523 329.258 234.352 329.493 234.01C329.738 233.668 329.861 233.187 329.861 232.567C329.861 231.948 329.738 231.467 329.493 231.125C329.258 230.783 328.921 230.612 328.483 230.612C328.066 230.612 327.729 230.788 327.473 231.141C327.227 231.483 327.104 231.958 327.104 232.567C327.104 233.177 327.227 233.657 327.473 234.01C327.729 234.352 328.066 234.523 328.483 234.523ZM335.841 240.935C335.039 240.935 334.393 240.652 333.901 240.086C333.409 239.519 333.164 238.777 333.164 237.857C333.164 236.938 333.409 236.196 333.901 235.629C334.393 235.063 335.039 234.78 335.841 234.78C336.642 234.78 337.289 235.063 337.78 235.629C338.283 236.196 338.534 236.938 338.534 237.857C338.534 238.777 338.283 239.519 337.78 240.086C337.289 240.652 336.642 240.935 335.841 240.935ZM335.841 239.813C336.268 239.813 336.605 239.642 336.851 239.3C337.097 238.948 337.219 238.467 337.219 237.857C337.219 237.248 337.097 236.773 336.851 236.431C336.605 236.078 336.268 235.902 335.841 235.902C335.413 235.902 335.077 236.073 334.831 236.415C334.585 236.757 334.462 237.238 334.462 237.857C334.462 238.477 334.585 238.958 334.831 239.3C335.077 239.642 335.413 239.813 335.841 239.813Z" fill="#FF8A00"/>
<path d="M249.246 244.831C249.246 235.609 256.722 228.133 265.945 228.133C275.167 228.133 282.643 235.609 282.643 244.831C282.643 254.054 275.167 261.53 265.945 261.53C256.722 261.53 249.246 254.054 249.246 244.831Z" fill="#FFF0DF"/>
<path d="M272.207 249.702V251.093C272.207 251.511 271.929 251.789 271.512 251.789C271.094 251.789 270.816 251.511 270.816 251.093V249.702C270.816 248.519 269.911 247.614 268.729 247.614H263.162C261.98 247.614 261.075 248.519 261.075 249.702V251.093C261.075 251.511 260.797 251.789 260.379 251.789C259.962 251.789 259.684 251.511 259.684 251.093V249.702C259.684 247.753 261.214 246.223 263.162 246.223H268.729C270.677 246.223 272.207 247.753 272.207 249.702Z" fill="#FF8A00"/>
<path d="M262.467 241.352C262.467 239.404 263.997 237.873 265.946 237.873C267.894 237.873 269.424 239.404 269.424 241.352C269.424 243.3 267.894 244.831 265.946 244.831C263.997 244.831 262.467 243.3 262.467 241.352Z" fill="#FF8A00"/>
<path d="M263.857 241.353C263.857 242.536 264.762 243.44 265.945 243.44C267.128 243.44 268.032 242.536 268.032 241.353C268.032 240.17 267.128 239.266 265.945 239.266C264.762 239.266 263.857 240.17 263.857 241.353Z" fill="#FFF0DF"/>
<path d="M298.488 204.415V205.461H292.441V204.644L295.867 201.338C296.284 200.937 296.564 200.592 296.709 200.304C296.853 200.007 296.925 199.71 296.925 199.414C296.925 198.973 296.769 198.632 296.456 198.392C296.152 198.143 295.711 198.019 295.134 198.019C294.204 198.019 293.487 198.324 292.982 198.933L292.164 198.224C292.493 197.823 292.922 197.51 293.451 197.286C293.988 197.061 294.585 196.949 295.242 196.949C296.124 196.949 296.825 197.162 297.346 197.586C297.867 198.003 298.127 198.572 298.127 199.294C298.127 199.743 298.031 200.167 297.839 200.568C297.647 200.969 297.282 201.426 296.745 201.939L294.172 204.415H298.488Z" fill="#4F4F4F"/>
<path d="M302.086 197.045V205.461H300.895V198.091H298.996V197.045H302.086Z" fill="#4F4F4F"/>
<path d="M304.732 203.886C304.956 203.886 305.141 203.967 305.285 204.127C305.437 204.279 305.514 204.472 305.514 204.704C305.514 204.824 305.497 204.94 305.465 205.053C305.441 205.165 305.389 205.337 305.309 205.57L304.744 207.241H303.987L304.431 205.449C304.279 205.393 304.155 205.301 304.059 205.173C303.971 205.037 303.926 204.88 303.926 204.704C303.926 204.464 304.003 204.267 304.155 204.115C304.307 203.963 304.5 203.886 304.732 203.886Z" fill="#4F4F4F"/>
<path d="M313.867 203.393H312.268V205.461H311.101V203.393H306.425V202.552L310.729 197.045H312.027L307.903 202.36H311.138V200.532H312.268V202.36H313.867V203.393Z" fill="#4F4F4F"/>
<path d="M316.957 200.4C318.159 200.4 319.041 200.628 319.602 201.085C320.171 201.534 320.455 202.151 320.455 202.937C320.455 203.434 320.335 203.882 320.095 204.283C319.862 204.676 319.506 204.989 319.025 205.221C318.552 205.445 317.967 205.558 317.269 205.558C316.676 205.558 316.103 205.469 315.55 205.293C314.997 205.109 314.54 204.856 314.179 204.536L314.733 203.586C315.021 203.858 315.39 204.079 315.839 204.247C316.288 204.407 316.76 204.488 317.257 204.488C317.891 204.488 318.379 204.355 318.724 204.091C319.077 203.818 319.253 203.45 319.253 202.985C319.253 202.48 319.061 202.099 318.676 201.843C318.291 201.578 317.634 201.446 316.704 201.446H314.793L315.238 197.045H319.987V198.091H316.247L316.019 200.4H316.957Z" fill="#4F4F4F"/>
<path d="M324.895 205.558C324.229 205.558 323.636 205.389 323.115 205.053C322.602 204.708 322.197 204.211 321.901 203.562C321.604 202.913 321.456 202.143 321.456 201.253C321.456 200.364 321.604 199.594 321.901 198.945C322.197 198.296 322.602 197.803 323.115 197.466C323.636 197.122 324.229 196.949 324.895 196.949C325.552 196.949 326.137 197.122 326.65 197.466C327.171 197.803 327.58 198.296 327.876 198.945C328.173 199.594 328.321 200.364 328.321 201.253C328.321 202.143 328.173 202.913 327.876 203.562C327.58 204.211 327.171 204.708 326.65 205.053C326.137 205.389 325.552 205.558 324.895 205.558ZM324.895 204.488C325.568 204.488 326.105 204.211 326.506 203.658C326.914 203.105 327.119 202.303 327.119 201.253C327.119 200.203 326.914 199.402 326.506 198.849C326.105 198.296 325.568 198.019 324.895 198.019C324.213 198.019 323.668 198.296 323.259 198.849C322.859 199.402 322.658 200.203 322.658 201.253C322.658 202.303 322.859 203.105 323.259 203.658C323.668 204.211 324.213 204.488 324.895 204.488Z" fill="#4F4F4F"/>
<path d="M336.198 197.74V198.512H339.162V197.74H336.198ZM336.198 199.784V200.545H339.184V199.784H336.198ZM338.798 196.082V202.157H339.741V196.082H338.798ZM331.77 196.854V201.419H336.459V196.854H331.77ZM335.528 197.615V200.669H332.689V197.615H335.528ZM336.368 202.452C334.245 202.452 332.939 203.168 332.939 204.394C332.939 205.62 334.245 206.324 336.368 206.324C338.48 206.324 339.786 205.62 339.786 204.394C339.786 203.168 338.48 202.452 336.368 202.452ZM336.368 203.202C337.913 203.202 338.855 203.644 338.855 204.394C338.855 205.143 337.913 205.586 336.368 205.586C334.824 205.586 333.882 205.143 333.882 204.394C333.882 203.644 334.824 203.202 336.368 203.202Z" fill="#4F4F4F"/>
<path d="M300.828 185.663V187.427H292.556V186.032L297.012 181.8C297.515 181.319 297.851 180.902 298.022 180.55C298.204 180.186 298.295 179.828 298.295 179.475C298.295 178.952 298.118 178.551 297.766 178.273C297.413 177.995 296.895 177.856 296.211 177.856C295.067 177.856 294.191 178.246 293.582 179.027L292.123 177.904C292.561 177.317 293.149 176.862 293.886 176.542C294.634 176.211 295.468 176.045 296.387 176.045C297.605 176.045 298.578 176.333 299.305 176.911C300.031 177.488 300.395 178.273 300.395 179.267C300.395 179.876 300.267 180.448 300.01 180.982C299.754 181.517 299.262 182.126 298.535 182.81L295.538 185.663H300.828Z" fill="#25BA00"/>
<path d="M305.814 176.045C307.353 176.045 308.544 176.526 309.388 177.488C310.243 178.45 310.671 179.828 310.671 181.624C310.671 182.885 310.441 183.964 309.982 184.862C309.522 185.749 308.875 186.427 308.042 186.898C307.219 187.357 306.262 187.587 305.172 187.587C304.595 187.587 304.05 187.528 303.537 187.411C303.035 187.282 302.597 187.101 302.223 186.866L302.992 185.295C303.548 185.658 304.259 185.84 305.124 185.84C306.204 185.84 307.048 185.508 307.657 184.846C308.266 184.183 308.571 183.227 308.571 181.976V181.96C308.24 182.345 307.817 182.639 307.304 182.842C306.791 183.034 306.214 183.13 305.573 183.13C304.836 183.13 304.173 182.991 303.585 182.714C302.998 182.425 302.538 182.019 302.207 181.495C301.875 180.972 301.71 180.368 301.71 179.684C301.71 178.957 301.891 178.321 302.255 177.776C302.618 177.22 303.11 176.793 303.73 176.494C304.35 176.195 305.044 176.045 305.814 176.045ZM305.974 181.495C306.647 181.495 307.192 181.314 307.609 180.95C308.037 180.587 308.25 180.127 308.25 179.572C308.25 179.027 308.042 178.578 307.625 178.225C307.219 177.862 306.653 177.68 305.926 177.68C305.274 177.68 304.745 177.856 304.339 178.209C303.933 178.551 303.73 179.011 303.73 179.588C303.73 180.175 303.933 180.64 304.339 180.982C304.745 181.324 305.29 181.495 305.974 181.495Z" fill="#25BA00"/>
<path d="M313.143 187.539C312.78 187.539 312.47 187.416 312.214 187.17C311.957 186.914 311.829 186.593 311.829 186.208C311.829 185.813 311.952 185.492 312.198 185.246C312.454 185.001 312.769 184.878 313.143 184.878C313.517 184.878 313.827 185.001 314.073 185.246C314.33 185.492 314.458 185.813 314.458 186.208C314.458 186.593 314.33 186.914 314.073 187.17C313.817 187.416 313.507 187.539 313.143 187.539Z" fill="#25BA00"/>
<path d="M320.717 180.501C321.454 180.501 322.117 180.646 322.704 180.934C323.292 181.212 323.752 181.613 324.083 182.137C324.414 182.66 324.58 183.264 324.58 183.948C324.58 184.675 324.398 185.316 324.035 185.872C323.671 186.417 323.18 186.839 322.56 187.138C321.94 187.437 321.246 187.587 320.476 187.587C318.937 187.587 317.74 187.106 316.885 186.144C316.041 185.182 315.619 183.804 315.619 182.008C315.619 180.747 315.849 179.673 316.308 178.786C316.768 177.888 317.409 177.21 318.232 176.75C319.065 176.28 320.027 176.045 321.117 176.045C321.694 176.045 322.234 176.109 322.736 176.237C323.249 176.355 323.693 176.531 324.067 176.766L323.297 178.337C322.742 177.974 322.031 177.792 321.165 177.792C320.086 177.792 319.242 178.124 318.633 178.786C318.023 179.449 317.719 180.405 317.719 181.656V181.672C318.05 181.287 318.472 180.998 318.985 180.806C319.498 180.603 320.075 180.501 320.717 180.501ZM320.364 185.952C321.016 185.952 321.545 185.781 321.951 185.439C322.357 185.086 322.56 184.621 322.56 184.044C322.56 183.456 322.357 182.991 321.951 182.65C321.545 182.308 321 182.137 320.316 182.137C319.642 182.137 319.092 182.318 318.665 182.682C318.248 183.045 318.039 183.504 318.039 184.06C318.039 184.605 318.242 185.059 318.649 185.423C319.065 185.775 319.637 185.952 320.364 185.952Z" fill="#25BA00"/>
<path d="M327.857 182.249C327.055 182.249 326.409 181.966 325.917 181.399C325.426 180.833 325.18 180.09 325.18 179.171C325.18 178.252 325.426 177.509 325.917 176.943C326.409 176.376 327.055 176.093 327.857 176.093C328.658 176.093 329.305 176.376 329.797 176.943C330.299 177.498 330.55 178.241 330.55 179.171C330.55 180.101 330.299 180.849 329.797 181.415C329.305 181.971 328.658 182.249 327.857 182.249ZM334.59 176.205H336.161L328.498 187.427H326.927L334.59 176.205ZM327.857 181.127C328.295 181.127 328.632 180.956 328.867 180.614C329.113 180.272 329.235 179.791 329.235 179.171C329.235 178.551 329.113 178.07 328.867 177.728C328.632 177.386 328.295 177.215 327.857 177.215C327.44 177.215 327.103 177.391 326.847 177.744C326.601 178.086 326.478 178.562 326.478 179.171C326.478 179.78 326.601 180.261 326.847 180.614C327.103 180.956 327.44 181.127 327.857 181.127ZM335.215 187.539C334.413 187.539 333.767 187.256 333.275 186.689C332.784 186.123 332.538 185.38 332.538 184.461C332.538 183.542 332.784 182.799 333.275 182.233C333.767 181.666 334.413 181.383 335.215 181.383C336.016 181.383 336.663 181.666 337.155 182.233C337.657 182.799 337.908 183.542 337.908 184.461C337.908 185.38 337.657 186.123 337.155 186.689C336.663 187.256 336.016 187.539 335.215 187.539ZM335.215 186.417C335.642 186.417 335.979 186.246 336.225 185.904C336.471 185.551 336.594 185.07 336.594 184.461C336.594 183.852 336.471 183.376 336.225 183.034C335.979 182.682 335.642 182.505 335.215 182.505C334.787 182.505 334.451 182.676 334.205 183.018C333.959 183.36 333.836 183.841 333.836 184.461C333.836 185.081 333.959 185.562 334.205 185.904C334.451 186.246 334.787 186.417 335.215 186.417Z" fill="#25BA00"/>
<path d="M249.246 191.435C249.246 182.212 256.722 174.736 265.945 174.736C275.167 174.736 282.643 182.212 282.643 191.435C282.643 200.657 275.167 208.133 265.945 208.133C256.722 208.133 249.246 200.657 249.246 191.435Z" fill="#E9F9E5"/>
<path d="M272.207 196.305V197.697C272.207 198.114 271.929 198.392 271.512 198.392C271.094 198.392 270.816 198.114 270.816 197.697V196.305C270.816 195.122 269.911 194.218 268.729 194.218H263.162C261.98 194.218 261.075 195.122 261.075 196.305V197.697C261.075 198.114 260.797 198.392 260.379 198.392C259.962 198.392 259.684 198.114 259.684 197.697V196.305C259.684 194.357 261.214 192.826 263.162 192.826H268.729C270.677 192.826 272.207 194.357 272.207 196.305Z" fill="#25BA00"/>
<path d="M262.467 187.955C262.467 186.007 263.997 184.477 265.946 184.477C267.894 184.477 269.424 186.007 269.424 187.955C269.424 189.904 267.894 191.434 265.946 191.434C263.997 191.434 262.467 189.904 262.467 187.955Z" fill="#25BA00"/>
<path d="M263.857 187.956C263.857 189.139 264.762 190.044 265.945 190.044C267.128 190.044 268.032 189.139 268.032 187.956C268.032 186.774 267.128 185.869 265.945 185.869C264.762 185.869 263.857 186.774 263.857 187.956Z" fill="#E9F9E5"/>
<path fill-rule="evenodd" clip-rule="evenodd" d="M157.246 288.133C195.906 288.133 227.246 256.793 227.246 218.133C227.246 179.473 195.906 148.133 157.246 148.133C118.586 148.133 87.2461 179.473 87.2461 218.133C87.2461 256.793 118.586 288.133 157.246 288.133ZM157.247 242.984C170.971 242.984 182.097 231.858 182.097 218.134C182.097 204.41 170.971 193.284 157.247 193.284C143.523 193.284 132.397 204.41 132.397 218.134C132.397 231.858 143.523 242.984 157.247 242.984Z" fill="#25BA00"/>
<path d="M152.081 148.318C136.638 149.453 121.469 155.693 109.307 167.124C81.1348 193.601 79.7622 237.903 106.241 266.074C132.72 294.245 177.024 295.617 205.196 269.139C215.782 259.19 222.584 246.723 225.546 233.541L181.012 225.457C179.786 229.444 177.538 233.177 174.281 236.238C164.28 245.637 148.552 245.15 139.152 235.15C129.752 225.149 130.239 209.422 140.24 200.023C144.703 195.828 150.307 193.602 155.98 193.312L152.081 148.318Z" fill="#FF8A00"/>
<path d="M190.651 184.387V190.477H192.202V184.387H190.651ZM191.782 186.662V187.922H193.637V186.662H191.782ZM185.167 190.967V195.073H192.202V190.967H185.167ZM190.686 192.18V193.848H186.696V192.18H190.686ZM184.129 184.9V189.322H185.681V184.9H184.129ZM184.129 188.657V189.928H185.039C186.567 189.928 188.224 189.835 189.986 189.473L189.811 188.225C188.107 188.552 186.509 188.657 185.039 188.657H184.129Z" fill="white"/>
<path d="M196.705 184.947V185.915C196.705 187.397 195.946 188.855 194.103 189.45L194.908 190.698C197.031 189.987 198 188.085 198 185.915V184.947H196.705ZM197.031 184.947V185.845C197.031 187.945 197.895 189.683 199.89 190.372L200.695 189.158C198.98 188.61 198.28 187.28 198.28 185.845V184.947H197.031ZM201.686 184.387V190.71H203.238V184.387H201.686ZM199.575 190.99C197.288 190.99 195.876 191.772 195.876 193.09C195.876 194.42 197.288 195.19 199.575 195.19C201.861 195.19 203.273 194.42 203.273 193.09C203.273 191.772 201.861 190.99 199.575 190.99ZM199.575 192.192C200.986 192.192 201.733 192.483 201.733 193.09C201.733 193.697 200.986 194 199.575 194C198.175 194 197.428 193.697 197.428 193.09C197.428 192.483 198.175 192.192 199.575 192.192ZM199.715 186.347V187.607H201.908V186.347H199.715Z" fill="white"/>
<path d="M118.626 249.139V250.387H121.566V249.139H118.626ZM118.626 252.487V253.735H121.566V252.487H118.626ZM116.759 247.68C115.137 247.68 113.971 249.174 113.971 251.53C113.971 253.91 115.137 255.404 116.759 255.404C118.369 255.404 119.547 253.91 119.547 251.53C119.547 249.174 118.369 247.68 116.759 247.68ZM116.759 249.092C117.552 249.092 118.077 249.944 118.077 251.53C118.077 253.14 117.552 254.004 116.759 254.004C115.977 254.004 115.441 253.14 115.441 251.53C115.441 249.944 115.977 249.092 116.759 249.092ZM121.321 246.922V257.76H122.861V246.922H121.321Z" fill="white"/>
<path d="M126.803 247.494V248.462C126.803 249.944 126.045 251.402 124.201 251.997L125.006 253.245C127.13 252.534 128.098 250.632 128.098 248.462V247.494H126.803ZM127.13 247.494V248.392C127.13 250.492 127.993 252.23 129.988 252.919L130.793 251.705C129.078 251.157 128.378 249.827 128.378 248.392V247.494H127.13ZM131.785 246.934V253.257H133.336V246.934H131.785ZM129.673 253.537C127.386 253.537 125.975 254.319 125.975 255.637C125.975 256.967 127.386 257.737 129.673 257.737C131.96 257.737 133.371 256.967 133.371 255.637C133.371 254.319 131.96 253.537 129.673 253.537ZM129.673 254.739C131.085 254.739 131.831 255.03 131.831 255.637C131.831 256.244 131.085 256.547 129.673 256.547C128.273 256.547 127.526 256.244 127.526 255.637C127.526 255.03 128.273 254.739 129.673 254.739ZM129.813 248.894V250.154H132.006V248.894H129.813Z" fill="white"/>
<path d="M75.086 80.4144V81.0604C75.086 83.0834 72.451 84.8514 69.748 85.2424L70.292 86.3644C73.386 85.8374 76.31 83.8144 76.31 81.0604V80.4144H75.086ZM75.443 80.4144V81.0604C75.443 83.8144 78.35 85.8374 81.461 86.3644L81.988 85.2424C79.302 84.8514 76.65 83.0834 76.65 81.0604V80.4144H75.443ZM75.137 88.4044V94.2694H76.531V88.4044H75.137ZM68.932 87.6564V88.8124H82.821V87.6564H68.932ZM70.224 79.8534V80.9924H81.478V79.8534H70.224ZM84.2307 91.2094V92.3824H98.1537V91.2094H84.2307ZM90.4527 87.9114V91.7024H91.8637V87.9114H90.4527ZM85.9137 80.0404V81.1794H95.0427V83.5594H85.9647V87.7754H87.3587V84.6984H96.4367V80.0404H85.9137ZM85.9647 87.1804V88.3364H96.7937V87.1804H85.9647ZM109.91 82.3184V83.4914H114.551V82.3184H109.91ZM109.91 87.1804V88.3534H114.551V87.1804H109.91ZM107.088 80.0744C104.844 80.0744 103.263 82.1654 103.263 85.4294C103.263 88.7104 104.844 90.8014 107.088 90.8014C109.315 90.8014 110.913 88.7104 110.913 85.4294C110.913 82.1654 109.315 80.0744 107.088 80.0744ZM107.088 81.3494C108.567 81.3494 109.587 82.9474 109.587 85.4294C109.587 87.9284 108.567 89.5604 107.088 89.5604C105.609 89.5604 104.589 87.9284 104.589 85.4294C104.589 82.9474 105.609 81.3494 107.088 81.3494ZM114.245 78.8844V94.2864H115.639V78.8844H114.245ZM122.149 79.7684V81.3494C122.149 83.6954 120.619 85.7524 118.273 86.5854L119.004 87.7414C121.639 86.7554 123.322 84.3244 123.322 81.3494V79.7684H122.149ZM122.404 79.7684V81.2984C122.404 84.0864 124.053 86.3474 126.535 87.2824L127.3 86.1774C125.056 85.3954 123.56 83.4744 123.56 81.2984V79.7684H122.404ZM129.51 78.9014V87.9964H130.921V78.9014H129.51ZM125.872 88.4384C122.693 88.4384 120.738 89.5094 120.738 91.3454C120.738 93.1814 122.693 94.2354 125.872 94.2354C129.034 94.2354 130.989 93.1814 130.989 91.3454C130.989 89.5094 129.034 88.4384 125.872 88.4384ZM125.872 89.5604C128.184 89.5604 129.595 90.2234 129.595 91.3454C129.595 92.4674 128.184 93.1304 125.872 93.1304C123.56 93.1304 122.149 92.4674 122.149 91.3454C122.149 90.2234 123.56 89.5604 125.872 89.5604ZM126.178 82.1484V83.3214H129.816V82.1484H126.178ZM133.996 96.1734C135.543 95.5444 136.478 94.2694 136.478 92.6204C136.478 91.4984 135.985 90.8014 135.169 90.8014C134.54 90.8014 134.013 91.2094 134.013 91.8894C134.013 92.5864 134.54 92.9774 135.135 92.9774C135.441 92.9774 135.713 92.8924 135.917 92.6374L135.169 91.5154L135.339 92.9094C135.339 93.9464 134.693 94.7964 133.639 95.2724L133.996 96.1734ZM146.355 92.9434H147.817V80.4824H146.1L140.915 88.4894V89.5094H149.483V88.2854H142.547L145.386 84.0354C145.726 83.4234 146.066 82.7944 146.372 82.1824H146.457C146.406 82.8284 146.355 83.8314 146.355 84.4604V92.9434ZM154.407 93.1814C156.753 93.1814 158.266 91.0224 158.266 86.6704C158.266 82.3524 156.753 80.2614 154.407 80.2614C152.027 80.2614 150.514 82.3524 150.514 86.6704C150.514 91.0224 152.027 93.1814 154.407 93.1814ZM154.407 91.9234C152.979 91.9234 152.01 90.3424 152.01 86.6704C152.01 83.0494 152.979 81.5024 154.407 81.5024C155.818 81.5024 156.77 83.0494 156.77 86.6704C156.77 90.3424 155.818 91.9234 154.407 91.9234ZM171.3 78.9014V94.2694H172.66V78.9014H171.3ZM168.699 85.0554V86.2284H171.657V85.0554H168.699ZM167.815 79.2414V93.4874H169.141V79.2414H167.815ZM160.165 89.3054V90.4784H161.168C163.48 90.4784 165.027 90.4104 166.863 90.0194L166.727 88.8464C164.942 89.2204 163.412 89.3054 161.168 89.3054H160.165ZM160.165 80.7714V89.8324H161.559V81.9274H165.877V80.7714H160.165ZM185.307 78.8844V94.2694H186.735V78.8844H185.307ZM186.344 85.1234V86.2964H189.183V85.1234H186.344ZM181.38 80.5504V80.7714C181.38 84.8344 179.255 88.1154 175.005 90.2744L175.787 91.3624C180.751 88.8634 182.757 84.9194 182.757 80.5504H181.38ZM175.719 80.5504V81.7064H182.111V80.5504H175.719ZM205.342 78.9014V94.2694H206.702V78.9014H205.342ZM202.758 85.1574V86.3134H205.716V85.1574H202.758ZM201.857 79.2414V93.4874H203.183V79.2414H201.857ZM194.411 80.7544V89.6284H195.822V80.7544H194.411ZM194.411 89.0674V90.2914H195.397C197.046 90.2914 198.814 90.2064 200.905 89.7984L200.752 88.5744C198.746 88.9654 196.978 89.0674 195.397 89.0674H194.411ZM213.257 79.8534V81.0094H220.057V79.8534H213.257ZM215.569 83.1854V86.8574H216.963V83.1854H215.569ZM219.496 79.8534V80.6864C219.496 81.6554 219.496 82.9304 219.105 84.7324L220.482 84.8514C220.873 83.0324 220.873 81.6554 220.873 80.6864V79.8534H219.496ZM222.981 78.9014V88.4894H224.392V78.9014H222.981ZM223.746 83.0834V84.2734H226.585V83.0834H223.746ZM212.492 87.4354C215.229 87.4354 218.867 87.3674 222.046 86.8404L221.944 85.8034C218.833 86.2114 215.11 86.2624 212.322 86.2624L212.492 87.4354ZM219.428 88.6764C216.266 88.6764 214.345 89.6964 214.345 91.4474C214.345 93.2154 216.266 94.2354 219.428 94.2354C222.59 94.2354 224.545 93.2154 224.545 91.4474C224.545 89.6964 222.59 88.6764 219.428 88.6764ZM219.428 89.7814C221.723 89.7814 223.1 90.3934 223.1 91.4474C223.1 92.5014 221.723 93.1134 219.428 93.1134C217.15 93.1134 215.756 92.5014 215.756 91.4474C215.756 90.3934 217.15 89.7814 219.428 89.7814ZM229.201 80.4314V81.6044H239.095V80.4314H229.201ZM227.739 90.9544V92.1274H241.628V90.9544H227.739ZM233.128 85.4634V91.5324H234.539V85.4634H233.128ZM238.568 80.4314V81.9614C238.568 83.7974 238.568 85.9564 237.99 88.8974L239.401 89.0844C239.962 85.9734 239.962 83.8654 239.962 81.9614V80.4314H238.568ZM257.006 78.9014V87.5884H258.417V78.9014H257.006ZM257.975 82.6414V83.8144H260.695V82.6414H257.975ZM248.625 88.4214V89.5774H258.825V88.4214H248.625ZM248.489 92.8924V94.0314H259.012V92.8924H248.489ZM250.75 88.6934V93.4364H252.144V88.6934H250.75ZM255.323 88.6934V93.4364H256.7V88.6934H255.323ZM250.784 79.7854C248.455 79.7854 246.772 81.2644 246.772 83.3894C246.772 85.5144 248.455 86.9934 250.784 86.9934C253.113 86.9934 254.796 85.5144 254.796 83.3894C254.796 81.2644 253.113 79.7854 250.784 79.7854ZM250.784 80.9584C252.314 80.9584 253.419 81.9614 253.419 83.3894C253.419 84.8174 252.314 85.8204 250.784 85.8204C249.254 85.8204 248.149 84.8174 248.149 83.3894C248.149 81.9614 249.254 80.9584 250.784 80.9584ZM268.734 79.1564C265.334 79.1564 263.328 80.1084 263.328 81.8254C263.328 83.5424 265.334 84.4944 268.734 84.4944C272.117 84.4944 274.14 83.5424 274.14 81.8254C274.14 80.1084 272.117 79.1564 268.734 79.1564ZM268.734 80.2274C271.233 80.2274 272.678 80.8054 272.678 81.8254C272.678 82.8454 271.233 83.4234 268.734 83.4234C266.218 83.4234 264.773 82.8454 264.773 81.8254C264.773 80.8054 266.218 80.2274 268.734 80.2274ZM261.781 85.5144V86.6534H275.67V85.5144H261.781ZM263.464 87.9624V89.0504H272.508V90.4104H263.498V93.3004H264.892V91.4304H273.902V87.9624H263.464ZM263.498 92.9944V94.0994H274.361V92.9944H263.498ZM291.065 78.9014V86.7384H292.476V78.9014H291.065ZM291.864 82.3524V83.5254H294.754V82.3524H291.864ZM281.188 79.9044V86.1774H288.243V79.9044H281.188ZM286.866 81.0434V85.0554H282.565V81.0434H286.866ZM282.157 92.7054V93.8614H282.888C283.942 93.8614 285.353 93.7934 286.832 93.3174L286.594 92.1784C285.285 92.6204 283.806 92.7054 282.888 92.7054H282.157ZM282.157 88.1494V93.0114H283.534V88.1494H282.157ZM286.271 88.3024V89.3564H293.989V88.3024H286.271ZM290.147 89.9174C288.464 89.9174 287.291 90.7674 287.291 92.0764C287.291 93.4194 288.464 94.2524 290.147 94.2524C291.813 94.2524 292.986 93.4194 292.986 92.0764C292.986 90.7674 291.813 89.9174 290.147 89.9174ZM290.147 90.9204C291.065 90.9204 291.728 91.3794 291.728 92.0764C291.728 92.7904 291.065 93.2494 290.147 93.2494C289.195 93.2494 288.549 92.7904 288.549 92.0764C288.549 91.3794 289.195 90.9204 290.147 90.9204ZM289.45 86.9594V89.0504H290.827V86.9594H289.45ZM307.009 78.8844V94.2864H308.42V78.8844H307.009ZM300.311 80.0744C298.05 80.0744 296.418 82.1654 296.418 85.4294C296.418 88.7104 298.05 90.8014 300.311 90.8014C302.589 90.8014 304.221 88.7104 304.221 85.4294C304.221 82.1654 302.589 80.0744 300.311 80.0744ZM300.311 81.3494C301.824 81.3494 302.861 82.9474 302.861 85.4294C302.861 87.9284 301.824 89.5604 300.311 89.5604C298.815 89.5604 297.761 87.9284 297.761 85.4294C297.761 82.9474 298.815 81.3494 300.311 81.3494ZM318.681 81.0944V83.5934C318.681 86.2454 316.828 89.1354 314.601 90.1894L315.417 91.3114C317.865 90.1044 319.82 86.8404 319.82 83.5934V81.0944H318.681ZM318.953 81.0944V83.5934C318.953 86.7894 320.925 89.7814 323.407 90.9374L324.206 89.8154C321.945 88.8464 320.092 86.1944 320.092 83.5934V81.0944H318.953ZM315.111 80.4654V81.6554H323.696V80.4654H315.111ZM325.77 78.9014V94.2694H327.181V78.9014H325.77ZM341.341 85.0214V86.2114H344.18V85.0214H341.341ZM340.304 78.8844V94.2694H341.732V78.8844H340.304ZM330.512 80.3974V89.9174H331.923V80.3974H330.512ZM330.512 89.1864V90.3764H331.736C334.065 90.3764 336.428 90.2234 339.046 89.6794L338.876 88.5064C336.343 89.0334 334.014 89.1864 331.736 89.1864H330.512ZM355.721 78.8674V87.5034H357.132V78.8674H355.721ZM356.741 82.7094V83.8994H359.41V82.7094H356.741ZM351.471 79.8874V80.5164C351.471 83.3384 349.176 85.5824 345.215 86.6704L345.759 87.8094C350.281 86.5684 352.984 83.7634 352.984 79.8874H351.471ZM345.912 79.8874V81.0264H352.287V79.8874H345.912ZM348.904 88.0984V89.1864C348.904 90.6824 347.748 92.3654 345.827 93.0624L346.541 94.1164C348.734 93.2664 349.975 91.2264 349.975 89.1864V88.0984H348.904ZM349.227 88.0984V89.1864C349.227 91.2604 350.196 93.3684 352.406 94.2524L353.018 93.1984C351.165 92.4334 350.264 90.7504 350.264 89.1864V88.0984H349.227ZM354.565 88.0984V89.1864C354.565 90.5294 353.664 92.3484 351.811 93.1984L352.406 94.2524C354.616 93.3004 355.619 91.0054 355.619 89.1864V88.0984H354.565ZM354.854 88.0984V89.1864C354.854 91.3284 356.078 93.3004 358.305 94.1164L359.002 93.0624C357.064 92.3994 355.942 90.8014 355.942 89.1864V88.0984H354.854ZM364.611 80.0744C362.367 80.0744 360.786 82.1654 360.786 85.4294C360.786 88.7104 362.367 90.8014 364.611 90.8014C366.838 90.8014 368.436 88.7104 368.436 85.4294C368.436 82.1654 366.838 80.0744 364.611 80.0744ZM364.611 81.3494C366.09 81.3494 367.093 82.9474 367.093 85.4294C367.093 87.9284 366.09 89.5604 364.611 89.5604C363.132 89.5604 362.129 87.9284 362.129 85.4294C362.129 82.9474 363.132 81.3494 364.611 81.3494ZM371.768 78.8844V94.2864H373.162V78.8844H371.768ZM367.977 84.7494V85.9054H372.38V84.7494H367.977ZM379.213 86.8064V91.4134H380.607V86.8064H379.213ZM384.891 86.8064V91.4134H386.302V86.8064H384.891ZM375.813 91.1414V92.3144H389.736V91.1414H375.813ZM382.749 79.8704C379.485 79.8704 377.156 81.4174 377.156 83.8314C377.156 86.2284 379.485 87.7754 382.749 87.7754C385.996 87.7754 388.325 86.2284 388.325 83.8314C388.325 81.4174 385.996 79.8704 382.749 79.8704ZM382.749 80.9924C385.214 80.9924 386.965 82.1144 386.965 83.8314C386.965 85.5314 385.214 86.6534 382.749 86.6534C380.284 86.6534 378.516 85.5314 378.516 83.8314C378.516 82.1144 380.284 80.9924 382.749 80.9924Z" fill="#828282"/>
<path d="M421.363 185.509C421.363 181.821 424.354 178.83 428.043 178.83H454.76C458.449 178.83 461.44 181.821 461.44 185.509V277.097H421.363V185.509Z" fill="#828282"/>
<path d="M471.348 227.312C471.348 223.623 474.338 220.633 478.027 220.633H504.745C508.434 220.633 511.424 223.623 511.424 227.312V277.005H471.348V227.312Z" fill="#E0E0E0"/>
<path d="M521.443 188.127C521.443 184.438 524.434 181.447 528.123 181.447H554.84C558.529 181.447 561.52 184.438 561.52 188.127V277.008H521.443V188.127Z" fill="#E0E0E0"/>
<path d="M571.539 157.248C571.539 153.559 574.53 150.568 578.218 150.568H604.936C608.625 150.568 611.615 153.559 611.615 157.248V277.004H571.539V157.248Z" fill="#FF4D56"/>
<path d="M621.633 217.312C621.633 213.623 624.623 210.633 628.312 210.633H655.03C658.719 210.633 661.709 213.623 661.709 217.312V276.775H621.633V217.312Z" fill="#E0E0E0"/>
<path d="M450.223 284.666V293.823H451.225V284.666H450.223ZM448.821 288.273V289.125H450.474V288.273H448.821ZM448.159 284.846V293.373H449.131V284.846H448.159ZM443.711 290.778V291.649H444.332C445.615 291.649 446.556 291.609 447.658 291.389L447.568 290.527C446.496 290.738 445.574 290.778 444.332 290.778H443.711ZM443.711 285.758V291.188H444.753V286.61H447.107V285.758H443.711Z" fill="#828282"/>
<path d="M433.524 285.044V292.992H432.4V286.032H430.605V285.044H433.524Z" fill="#828282"/>
<path d="M438.51 293.083C437.882 293.083 437.321 292.924 436.829 292.606C436.345 292.281 435.963 291.812 435.682 291.198C435.402 290.585 435.262 289.858 435.262 289.018C435.262 288.178 435.402 287.451 435.682 286.838C435.963 286.225 436.345 285.759 436.829 285.441C437.321 285.116 437.882 284.953 438.51 284.953C439.131 284.953 439.683 285.116 440.168 285.441C440.66 285.759 441.046 286.225 441.326 286.838C441.606 287.451 441.746 288.178 441.746 289.018C441.746 289.858 441.606 290.585 441.326 291.198C441.046 291.812 440.66 292.281 440.168 292.606C439.683 292.924 439.131 293.083 438.51 293.083ZM438.51 292.073C439.146 292.073 439.653 291.812 440.031 291.289C440.417 290.767 440.611 290.01 440.611 289.018C440.611 288.027 440.417 287.27 440.031 286.747C439.653 286.225 439.146 285.964 438.51 285.964C437.866 285.964 437.352 286.225 436.966 286.747C436.587 287.27 436.398 288.027 436.398 289.018C436.398 290.01 436.587 290.767 436.966 291.289C437.352 291.812 437.866 292.073 438.51 292.073Z" fill="#828282"/>
<path d="M501.653 284.666V293.823H502.655V284.666H501.653ZM500.25 288.273V289.125H501.904V288.273H500.25ZM499.589 284.846V293.373H500.561V284.846H499.589ZM495.141 290.778V291.649H495.762C497.044 291.649 497.986 291.609 499.088 291.389L498.998 290.527C497.926 290.738 497.004 290.778 495.762 290.778H495.141ZM495.141 285.758V291.188H496.183V286.61H498.537V285.758H495.141Z" fill="#828282"/>
<path d="M485.793 292.005V292.992H480.081V292.22L483.318 289.098C483.711 288.719 483.976 288.394 484.112 288.121C484.249 287.841 484.317 287.561 484.317 287.281C484.317 286.865 484.169 286.543 483.874 286.316C483.586 286.081 483.17 285.964 482.625 285.964C481.747 285.964 481.069 286.251 480.592 286.827L479.82 286.157C480.131 285.778 480.536 285.483 481.035 285.271C481.542 285.059 482.106 284.953 482.727 284.953C483.56 284.953 484.222 285.154 484.714 285.555C485.206 285.949 485.452 286.486 485.452 287.167C485.452 287.591 485.362 287.992 485.18 288.371C484.998 288.749 484.654 289.181 484.147 289.665L481.717 292.005H485.793Z" fill="#828282"/>
<path d="M489.941 293.083C489.313 293.083 488.752 292.924 488.26 292.606C487.776 292.281 487.394 291.812 487.113 291.198C486.833 290.585 486.693 289.858 486.693 289.018C486.693 288.178 486.833 287.451 487.113 286.838C487.394 286.225 487.776 285.759 488.26 285.441C488.752 285.116 489.313 284.953 489.941 284.953C490.562 284.953 491.114 285.116 491.599 285.441C492.091 285.759 492.477 286.225 492.757 286.838C493.037 287.451 493.177 288.178 493.177 289.018C493.177 289.858 493.037 290.585 492.757 291.198C492.477 291.812 492.091 292.281 491.599 292.606C491.114 292.924 490.562 293.083 489.941 293.083ZM489.941 292.073C490.577 292.073 491.084 291.812 491.462 291.289C491.848 290.767 492.042 290.01 492.042 289.018C492.042 288.027 491.848 287.27 491.462 286.747C491.084 286.225 490.577 285.964 489.941 285.964C489.297 285.964 488.783 286.225 488.397 286.747C488.018 287.27 487.829 288.027 487.829 289.018C487.829 290.01 488.018 290.767 488.397 291.289C488.783 291.812 489.297 292.073 489.941 292.073Z" fill="#828282"/>
<path d="M551.749 284.666V293.823H552.751V284.666H551.749ZM550.346 288.273V289.125H551.999V288.273H550.346ZM549.685 284.846V293.373H550.657V284.846H549.685ZM545.236 290.778V291.649H545.858C547.14 291.649 548.082 291.609 549.184 291.389L549.094 290.527C548.022 290.738 547.1 290.778 545.858 290.778H545.236ZM545.236 285.758V291.188H546.278V286.61H548.633V285.758H545.236Z" fill="#828282"/>
<path d="M533.334 288.382C534.114 288.458 534.708 288.7 535.117 289.109C535.526 289.51 535.73 290.025 535.73 290.653C535.73 291.108 535.616 291.52 535.389 291.891C535.162 292.254 534.822 292.546 534.367 292.765C533.921 292.977 533.372 293.083 532.721 293.083C532.153 293.083 531.608 293 531.086 292.833C530.564 292.659 530.136 292.421 529.803 292.118L530.325 291.221C530.598 291.478 530.946 291.687 531.37 291.846C531.794 291.997 532.244 292.073 532.721 292.073C533.311 292.073 533.769 291.948 534.095 291.698C534.428 291.448 534.595 291.104 534.595 290.665C534.595 290.226 534.432 289.885 534.106 289.643C533.781 289.4 533.289 289.279 532.63 289.279H531.994V288.485L533.993 286.032H530.166V285.044H535.412V285.816L533.334 288.382Z" fill="#828282"/>
<path d="M540.037 293.083C539.408 293.083 538.848 292.924 538.356 292.606C537.872 292.281 537.489 291.812 537.209 291.198C536.929 290.585 536.789 289.858 536.789 289.018C536.789 288.178 536.929 287.451 537.209 286.838C537.489 286.225 537.872 285.759 538.356 285.441C538.848 285.116 539.408 284.953 540.037 284.953C540.657 284.953 541.21 285.116 541.694 285.441C542.186 285.759 542.573 286.225 542.853 286.838C543.133 287.451 543.273 288.178 543.273 289.018C543.273 289.858 543.133 290.585 542.853 291.198C542.573 291.812 542.186 292.281 541.694 292.606C541.21 292.924 540.657 293.083 540.037 293.083ZM540.037 292.073C540.672 292.073 541.18 291.812 541.558 291.289C541.944 290.767 542.137 290.01 542.137 289.018C542.137 288.027 541.944 287.27 541.558 286.747C541.18 286.225 540.672 285.964 540.037 285.964C539.393 285.964 538.878 286.225 538.492 286.747C538.114 287.27 537.925 288.027 537.925 289.018C537.925 290.01 538.114 290.767 538.492 291.289C538.878 291.812 539.393 292.073 540.037 292.073Z" fill="#828282"/>
<path d="M602.02 284.605V293.883H603.283V284.605H602.02ZM600.778 288.172V289.244H602.321V288.172H600.778ZM599.946 284.766V293.442H601.179V284.766H599.946ZM595.578 290.697V291.789H596.229C597.422 291.789 598.404 291.759 599.526 291.539L599.425 290.457C598.323 290.657 597.372 290.697 596.229 290.697H595.578ZM595.578 285.678V291.218H596.901V286.75H599.005V285.678H595.578Z" fill="#FF4D56"/>
<path d="M586.486 291.186H585.078V292.992H583.647V291.186H579.287V290.164L583.205 285.043H584.783L581.093 289.937H583.693V288.336H585.078V289.937H586.486V291.186Z" fill="#FF4D56"/>
<path d="M590.423 293.105C589.787 293.105 589.219 292.946 588.72 292.628C588.22 292.303 587.827 291.834 587.539 291.22C587.251 290.6 587.107 289.865 587.107 289.017C587.107 288.17 587.251 287.439 587.539 286.826C587.827 286.205 588.22 285.736 588.72 285.418C589.219 285.092 589.787 284.93 590.423 284.93C591.059 284.93 591.627 285.092 592.126 285.418C592.633 285.736 593.031 286.205 593.319 286.826C593.606 287.439 593.75 288.17 593.75 289.017C593.75 289.865 593.606 290.6 593.319 291.22C593.031 291.834 592.633 292.303 592.126 292.628C591.627 292.946 591.059 293.105 590.423 293.105ZM590.423 291.822C590.991 291.822 591.437 291.587 591.763 291.118C592.096 290.649 592.263 289.949 592.263 289.017C592.263 288.086 592.096 287.386 591.763 286.917C591.437 286.447 590.991 286.213 590.423 286.213C589.863 286.213 589.416 286.447 589.083 286.917C588.758 287.386 588.595 288.086 588.595 289.017C588.595 289.949 588.758 290.649 589.083 291.118C589.416 291.587 589.863 291.822 590.423 291.822Z" fill="#FF4D56"/>
<path d="M651.94 284.666V293.823H652.942V284.666H651.94ZM650.537 288.273V289.125H652.191V288.273H650.537ZM649.876 284.846V293.373H650.848V284.846H649.876ZM645.428 290.778V291.649H646.049C647.331 291.649 648.273 291.609 649.375 291.389L649.285 290.527C648.213 290.738 647.291 290.778 646.049 290.778H645.428ZM645.428 285.758V291.188H646.47V286.61H648.824V285.758H645.428Z" fill="#828282"/>
<path d="M632.73 288.212C633.866 288.212 634.699 288.428 635.229 288.859C635.766 289.283 636.035 289.866 636.035 290.608C636.035 291.077 635.921 291.501 635.694 291.88C635.475 292.251 635.138 292.546 634.683 292.765C634.237 292.977 633.684 293.083 633.026 293.083C632.465 293.083 631.924 293 631.402 292.833C630.88 292.659 630.448 292.421 630.107 292.118L630.63 291.221C630.902 291.478 631.25 291.687 631.674 291.846C632.098 291.997 632.545 292.073 633.014 292.073C633.612 292.073 634.074 291.948 634.4 291.698C634.733 291.441 634.899 291.092 634.899 290.653C634.899 290.176 634.718 289.817 634.354 289.575C633.991 289.325 633.37 289.2 632.492 289.2H630.687L631.107 285.044H635.592V286.032H632.06L631.845 288.212H632.73Z" fill="#828282"/>
<path d="M640.227 293.083C639.599 293.083 639.039 292.924 638.547 292.606C638.062 292.281 637.68 291.812 637.4 291.198C637.12 290.585 636.98 289.858 636.98 289.018C636.98 288.178 637.12 287.451 637.4 286.838C637.68 286.225 638.062 285.759 638.547 285.441C639.039 285.116 639.599 284.953 640.227 284.953C640.848 284.953 641.401 285.116 641.885 285.441C642.377 285.759 642.763 286.225 643.043 286.838C643.323 287.451 643.463 288.178 643.463 289.018C643.463 289.858 643.323 290.585 643.043 291.198C642.763 291.812 642.377 292.281 641.885 292.606C641.401 292.924 640.848 293.083 640.227 293.083ZM640.227 292.073C640.863 292.073 641.37 291.812 641.749 291.289C642.135 290.767 642.328 290.01 642.328 289.018C642.328 288.027 642.135 287.27 641.749 286.747C641.37 286.225 640.863 285.964 640.227 285.964C639.584 285.964 639.069 286.225 638.683 286.747C638.304 287.27 638.115 288.027 638.115 289.018C638.115 290.01 638.304 290.767 638.683 291.289C639.069 291.812 639.584 292.073 640.227 292.073Z" fill="#828282"/>
<path d="M702.036 284.666V293.823H703.038V284.666H702.036ZM700.633 288.273V289.125H702.286V288.273H700.633ZM699.972 284.846V293.373H700.944V284.846H699.972ZM695.523 290.778V291.649H696.145C697.427 291.649 698.369 291.609 699.471 291.389L699.381 290.527C698.309 290.738 697.387 290.778 696.145 290.778H695.523ZM695.523 285.758V291.188H696.565V286.61H698.92V285.758H695.523Z" fill="#828282"/>
<path d="M683.441 288.167C683.963 288.167 684.429 288.265 684.838 288.462C685.254 288.659 685.579 288.943 685.814 289.313C686.049 289.677 686.166 290.097 686.166 290.574C686.166 291.073 686.041 291.513 685.791 291.891C685.549 292.27 685.212 292.565 684.781 292.777C684.357 292.981 683.88 293.083 683.35 293.083C682.283 293.083 681.458 292.739 680.875 292.05C680.299 291.361 680.012 290.385 680.012 289.12C680.012 288.235 680.167 287.481 680.477 286.861C680.795 286.232 681.234 285.759 681.794 285.441C682.362 285.116 683.021 284.953 683.77 284.953C684.156 284.953 684.52 284.995 684.86 285.078C685.201 285.154 685.496 285.267 685.746 285.419L685.314 286.304C684.936 286.055 684.429 285.93 683.793 285.93C682.968 285.93 682.321 286.187 681.851 286.702C681.382 287.209 681.147 287.951 681.147 288.927C681.147 289.048 681.151 289.143 681.159 289.211C681.386 288.871 681.696 288.613 682.09 288.439C682.491 288.257 682.941 288.167 683.441 288.167ZM683.305 292.164C683.827 292.164 684.251 292.023 684.576 291.743C684.902 291.463 685.065 291.089 685.065 290.619C685.065 290.15 684.898 289.779 684.565 289.506C684.24 289.226 683.8 289.086 683.248 289.086C682.892 289.086 682.574 289.154 682.294 289.291C682.022 289.427 681.806 289.612 681.647 289.847C681.495 290.082 681.42 290.343 681.42 290.631C681.42 290.911 681.492 291.168 681.635 291.403C681.787 291.63 682.003 291.815 682.283 291.959C682.57 292.095 682.911 292.164 683.305 292.164Z" fill="#828282"/>
<path d="M690.267 293.083C689.639 293.083 689.079 292.924 688.587 292.606C688.102 292.281 687.72 291.812 687.44 291.198C687.16 290.585 687.02 289.858 687.02 289.018C687.02 288.178 687.16 287.451 687.44 286.838C687.72 286.225 688.102 285.759 688.587 285.441C689.079 285.116 689.639 284.953 690.267 284.953C690.888 284.953 691.441 285.116 691.925 285.441C692.417 285.759 692.803 286.225 693.083 286.838C693.363 287.451 693.504 288.178 693.504 289.018C693.504 289.858 693.363 290.585 693.083 291.198C692.803 291.812 692.417 292.281 691.925 292.606C691.441 292.924 690.888 293.083 690.267 293.083ZM690.267 292.073C690.903 292.073 691.41 291.812 691.789 291.289C692.175 290.767 692.368 290.01 692.368 289.018C692.368 288.027 692.175 287.27 691.789 286.747C691.41 286.225 690.903 285.964 690.267 285.964C689.624 285.964 689.109 286.225 688.723 286.747C688.345 287.27 688.155 288.027 688.155 289.018C688.155 290.01 688.345 290.767 688.723 291.289C689.109 291.812 689.624 292.073 690.267 292.073Z" fill="#828282"/>
<path d="M576.008 135.379V143.779H574.448V136.687H572.672V135.379H576.008ZM581.25 138.847C582.026 138.943 582.618 139.207 583.026 139.639C583.434 140.071 583.638 140.611 583.638 141.259C583.638 141.747 583.514 142.191 583.266 142.591C583.018 142.991 582.642 143.311 582.138 143.551C581.642 143.783 581.034 143.899 580.314 143.899C579.714 143.899 579.134 143.815 578.574 143.647C578.022 143.471 577.55 143.231 577.158 142.927L577.83 141.715C578.134 141.971 578.502 142.175 578.934 142.327C579.374 142.471 579.826 142.543 580.29 142.543C580.842 142.543 581.274 142.431 581.586 142.207C581.906 141.975 582.066 141.663 582.066 141.271C582.066 140.879 581.914 140.575 581.61 140.359C581.314 140.135 580.858 140.023 580.242 140.023H579.474V138.955L581.382 136.687H577.566V135.379H583.29V136.423L581.25 138.847ZM585.607 141.871C585.887 141.871 586.119 141.963 586.303 142.147C586.487 142.331 586.579 142.571 586.579 142.867C586.579 142.995 586.559 143.131 586.519 143.275C586.487 143.411 586.415 143.619 586.303 143.899L585.691 145.591H584.719L585.199 143.755C585.023 143.683 584.883 143.571 584.779 143.419C584.683 143.259 584.635 143.075 584.635 142.867C584.635 142.571 584.727 142.331 584.911 142.147C585.095 141.963 585.327 141.871 585.607 141.871ZM593.749 135.379V136.423L590.485 143.779H588.817L591.973 136.699H588.673V138.127H587.221V135.379H593.749ZM597.546 135.259C598.698 135.259 599.59 135.619 600.222 136.339C600.862 137.059 601.182 138.091 601.182 139.435C601.182 140.379 601.01 141.187 600.666 141.859C600.322 142.523 599.838 143.031 599.214 143.383C598.598 143.727 597.882 143.899 597.066 143.899C596.634 143.899 596.226 143.855 595.842 143.767C595.466 143.671 595.138 143.535 594.858 143.359L595.434 142.183C595.85 142.455 596.382 142.591 597.03 142.591C597.838 142.591 598.47 142.343 598.926 141.847C599.382 141.351 599.61 140.635 599.61 139.699V139.687C599.362 139.975 599.046 140.195 598.662 140.347C598.278 140.491 597.846 140.563 597.366 140.563C596.814 140.563 596.318 140.459 595.878 140.251C595.438 140.035 595.094 139.731 594.846 139.339C594.598 138.947 594.474 138.495 594.474 137.983C594.474 137.439 594.61 136.963 594.882 136.555C595.154 136.139 595.522 135.819 595.986 135.595C596.45 135.371 596.97 135.259 597.546 135.259ZM597.666 139.339C598.17 139.339 598.578 139.203 598.89 138.931C599.21 138.659 599.37 138.315 599.37 137.899C599.37 137.491 599.214 137.155 598.902 136.891C598.598 136.619 598.174 136.483 597.63 136.483C597.142 136.483 596.746 136.615 596.442 136.879C596.138 137.135 595.986 137.479 595.986 137.911C595.986 138.351 596.138 138.699 596.442 138.955C596.746 139.211 597.154 139.339 597.666 139.339ZM605.741 143.899C605.069 143.899 604.469 143.731 603.941 143.395C603.413 143.051 602.997 142.555 602.693 141.907C602.389 141.251 602.237 140.475 602.237 139.579C602.237 138.683 602.389 137.911 602.693 137.263C602.997 136.607 603.413 136.111 603.941 135.775C604.469 135.431 605.069 135.259 605.741 135.259C606.413 135.259 607.013 135.431 607.541 135.775C608.077 136.111 608.497 136.607 608.801 137.263C609.105 137.911 609.257 138.683 609.257 139.579C609.257 140.475 609.105 141.251 608.801 141.907C608.497 142.555 608.077 143.051 607.541 143.395C607.013 143.731 606.413 143.899 605.741 143.899ZM605.741 142.543C606.341 142.543 606.813 142.295 607.157 141.799C607.509 141.303 607.685 140.563 607.685 139.579C607.685 138.595 607.509 137.855 607.157 137.359C606.813 136.863 606.341 136.615 605.741 136.615C605.149 136.615 604.677 136.863 604.325 137.359C603.981 137.855 603.809 138.595 603.809 139.579C603.809 140.563 603.981 141.303 604.325 141.799C604.677 142.295 605.149 142.543 605.741 142.543Z" fill="#FF4D56"/>
<path d="M426.084 163.43V171.83H424.524V164.738H422.748V163.43H426.084ZM433.835 170.51V171.83H427.643V170.786L430.979 167.618C431.355 167.258 431.607 166.946 431.735 166.682C431.871 166.41 431.939 166.142 431.939 165.878C431.939 165.486 431.807 165.186 431.543 164.978C431.279 164.77 430.891 164.666 430.379 164.666C429.523 164.666 428.867 164.958 428.411 165.542L427.319 164.702C427.647 164.262 428.087 163.922 428.639 163.682C429.199 163.434 429.823 163.31 430.511 163.31C431.423 163.31 432.151 163.526 432.695 163.958C433.239 164.39 433.511 164.978 433.511 165.722C433.511 166.178 433.415 166.606 433.223 167.006C433.031 167.406 432.663 167.862 432.119 168.374L429.875 170.51H433.835ZM435.8 169.922C436.08 169.922 436.312 170.014 436.496 170.198C436.68 170.382 436.772 170.622 436.772 170.918C436.772 171.046 436.752 171.182 436.712 171.326C436.68 171.462 436.608 171.67 436.496 171.95L435.884 173.642H434.912L435.392 171.806C435.216 171.734 435.076 171.622 434.972 171.47C434.876 171.31 434.828 171.126 434.828 170.918C434.828 170.622 434.92 170.382 435.104 170.198C435.288 170.014 435.52 169.922 435.8 169.922ZM441.145 171.95C440.473 171.95 439.873 171.782 439.345 171.446C438.817 171.102 438.401 170.606 438.097 169.958C437.793 169.302 437.641 168.526 437.641 167.63C437.641 166.734 437.793 165.962 438.097 165.314C438.401 164.658 438.817 164.162 439.345 163.826C439.873 163.482 440.473 163.31 441.145 163.31C441.817 163.31 442.417 163.482 442.945 163.826C443.481 164.162 443.901 164.658 444.205 165.314C444.509 165.962 444.661 166.734 444.661 167.63C444.661 168.526 444.509 169.302 444.205 169.958C443.901 170.606 443.481 171.102 442.945 171.446C442.417 171.782 441.817 171.95 441.145 171.95ZM441.145 170.594C441.745 170.594 442.217 170.346 442.561 169.85C442.913 169.354 443.089 168.614 443.089 167.63C443.089 166.646 442.913 165.906 442.561 165.41C442.217 164.914 441.745 164.666 441.145 164.666C440.553 164.666 440.081 164.914 439.729 165.41C439.385 165.906 439.213 166.646 439.213 167.63C439.213 168.614 439.385 169.354 439.729 169.85C440.081 170.346 440.553 170.594 441.145 170.594ZM451.741 170.51V171.83H445.549V170.786L448.885 167.618C449.261 167.258 449.513 166.946 449.641 166.682C449.777 166.41 449.845 166.142 449.845 165.878C449.845 165.486 449.713 165.186 449.449 164.978C449.185 164.77 448.797 164.666 448.285 164.666C447.429 164.666 446.773 164.958 446.317 165.542L445.225 164.702C445.553 164.262 445.993 163.922 446.545 163.682C447.105 163.434 447.729 163.31 448.417 163.31C449.329 163.31 450.057 163.526 450.601 163.958C451.145 164.39 451.417 164.978 451.417 165.722C451.417 166.178 451.321 166.606 451.129 167.006C450.937 167.406 450.569 167.862 450.025 168.374L447.781 170.51H451.741ZM456.11 171.95C455.438 171.95 454.838 171.782 454.31 171.446C453.782 171.102 453.366 170.606 453.062 169.958C452.758 169.302 452.606 168.526 452.606 167.63C452.606 166.734 452.758 165.962 453.062 165.314C453.366 164.658 453.782 164.162 454.31 163.826C454.838 163.482 455.438 163.31 456.11 163.31C456.782 163.31 457.382 163.482 457.91 163.826C458.446 164.162 458.866 164.658 459.17 165.314C459.474 165.962 459.626 166.734 459.626 167.63C459.626 168.526 459.474 169.302 459.17 169.958C458.866 170.606 458.446 171.102 457.91 171.446C457.382 171.782 456.782 171.95 456.11 171.95ZM456.11 170.594C456.71 170.594 457.182 170.346 457.526 169.85C457.878 169.354 458.054 168.614 458.054 167.63C458.054 166.646 457.878 165.906 457.526 165.41C457.182 164.914 456.71 164.666 456.11 164.666C455.518 164.666 455.046 164.914 454.694 165.41C454.35 165.906 454.178 166.646 454.178 167.63C454.178 168.614 454.35 169.354 454.694 169.85C455.046 170.346 455.518 170.594 456.11 170.594Z" fill="#828282"/>
<path d="M527.575 166.047V174.447H526.015V167.355H524.239V166.047H527.575ZM532.145 166.047V174.447H530.585V167.355H528.809V166.047H532.145ZM534.759 172.539C535.039 172.539 535.271 172.631 535.455 172.815C535.639 172.999 535.731 173.239 535.731 173.535C535.731 173.663 535.711 173.799 535.671 173.943C535.639 174.079 535.567 174.287 535.455 174.567L534.843 176.259H533.871L534.351 174.423C534.175 174.351 534.035 174.239 533.931 174.087C533.835 173.927 533.787 173.743 533.787 173.535C533.787 173.239 533.879 172.999 534.063 172.815C534.247 172.631 534.479 172.539 534.759 172.539ZM539.573 165.927C540.725 165.927 541.617 166.287 542.249 167.007C542.889 167.727 543.209 168.759 543.209 170.103C543.209 171.047 543.037 171.855 542.693 172.527C542.349 173.191 541.865 173.699 541.241 174.051C540.625 174.395 539.909 174.567 539.093 174.567C538.661 174.567 538.253 174.523 537.869 174.435C537.493 174.339 537.165 174.203 536.885 174.027L537.461 172.851C537.877 173.123 538.409 173.259 539.057 173.259C539.865 173.259 540.497 173.011 540.953 172.515C541.409 172.019 541.637 171.303 541.637 170.367V170.355C541.389 170.643 541.073 170.863 540.689 171.015C540.305 171.159 539.873 171.231 539.393 171.231C538.841 171.231 538.345 171.127 537.905 170.919C537.465 170.703 537.121 170.399 536.873 170.007C536.625 169.615 536.501 169.163 536.501 168.651C536.501 168.107 536.637 167.631 536.909 167.223C537.181 166.807 537.549 166.487 538.013 166.263C538.477 166.039 538.997 165.927 539.573 165.927ZM539.693 170.007C540.197 170.007 540.605 169.871 540.917 169.599C541.237 169.327 541.397 168.983 541.397 168.567C541.397 168.159 541.241 167.823 540.929 167.559C540.625 167.287 540.201 167.151 539.657 167.151C539.169 167.151 538.773 167.283 538.469 167.547C538.165 167.803 538.013 168.147 538.013 168.579C538.013 169.019 538.165 169.367 538.469 169.623C538.773 169.879 539.181 170.007 539.693 170.007ZM546.892 169.299C548.076 169.299 548.952 169.531 549.52 169.995C550.088 170.451 550.372 171.075 550.372 171.867C550.372 172.371 550.248 172.827 550 173.235C549.752 173.643 549.38 173.967 548.884 174.207C548.388 174.447 547.776 174.567 547.048 174.567C546.448 174.567 545.868 174.483 545.308 174.315C544.748 174.139 544.276 173.899 543.892 173.595L544.552 172.383C544.864 172.639 545.236 172.843 545.668 172.995C546.108 173.139 546.56 173.211 547.024 173.211C547.576 173.211 548.008 173.099 548.32 172.875C548.64 172.643 548.8 172.327 548.8 171.927C548.8 171.495 548.628 171.171 548.284 170.955C547.948 170.731 547.368 170.619 546.544 170.619H544.516L544.948 166.047H549.88V167.355H546.268L546.088 169.299H546.892ZM554.776 174.567C554.104 174.567 553.504 174.399 552.976 174.063C552.448 173.719 552.032 173.223 551.728 172.575C551.424 171.919 551.272 171.143 551.272 170.247C551.272 169.351 551.424 168.579 551.728 167.931C552.032 167.275 552.448 166.779 552.976 166.443C553.504 166.099 554.104 165.927 554.776 165.927C555.448 165.927 556.048 166.099 556.576 166.443C557.112 166.779 557.532 167.275 557.836 167.931C558.14 168.579 558.292 169.351 558.292 170.247C558.292 171.143 558.14 171.919 557.836 172.575C557.532 173.223 557.112 173.719 556.576 174.063C556.048 174.399 555.448 174.567 554.776 174.567ZM554.776 173.211C555.376 173.211 555.848 172.963 556.192 172.467C556.544 171.971 556.72 171.231 556.72 170.247C556.72 169.263 556.544 168.523 556.192 168.027C555.848 167.531 555.376 167.283 554.776 167.283C554.184 167.283 553.712 167.531 553.36 168.027C553.016 168.523 552.844 169.263 552.844 170.247C552.844 171.231 553.016 171.971 553.36 172.467C553.712 172.963 554.184 173.211 554.776 173.211Z" fill="#BDBDBD"/>
<path d="M626.674 195.233V203.633H625.114V196.541H623.338V195.233H626.674ZM631.845 203.753C631.173 203.753 630.573 203.585 630.045 203.249C629.517 202.905 629.101 202.409 628.797 201.761C628.493 201.105 628.341 200.329 628.341 199.433C628.341 198.537 628.493 197.765 628.797 197.117C629.101 196.461 629.517 195.965 630.045 195.629C630.573 195.285 631.173 195.113 631.845 195.113C632.517 195.113 633.117 195.285 633.645 195.629C634.181 195.965 634.601 196.461 634.905 197.117C635.209 197.765 635.361 198.537 635.361 199.433C635.361 200.329 635.209 201.105 634.905 201.761C634.601 202.409 634.181 202.905 633.645 203.249C633.117 203.585 632.517 203.753 631.845 203.753ZM631.845 202.397C632.445 202.397 632.917 202.149 633.261 201.653C633.613 201.157 633.789 200.417 633.789 199.433C633.789 198.449 633.613 197.709 633.261 197.213C632.917 196.717 632.445 196.469 631.845 196.469C631.253 196.469 630.781 196.717 630.429 197.213C630.085 197.709 629.913 198.449 629.913 199.433C629.913 200.417 630.085 201.157 630.429 201.653C630.781 202.149 631.253 202.397 631.845 202.397ZM637.222 201.725C637.502 201.725 637.734 201.817 637.918 202.001C638.102 202.185 638.194 202.425 638.194 202.721C638.194 202.849 638.174 202.985 638.134 203.129C638.102 203.265 638.03 203.473 637.918 203.753L637.306 205.445H636.334L636.814 203.609C636.638 203.537 636.498 203.425 636.394 203.273C636.298 203.113 636.25 202.929 636.25 202.721C636.25 202.425 636.342 202.185 636.526 202.001C636.71 201.817 636.942 201.725 637.222 201.725ZM646.633 201.725H645.145V203.633H643.633V201.725H639.025V200.645L643.165 195.233H644.833L640.933 200.405H643.681V198.713H645.145V200.405H646.633V201.725ZM649.889 195.233V203.633H648.329V196.541H646.553V195.233H649.889ZM655.059 203.753C654.387 203.753 653.787 203.585 653.259 203.249C652.731 202.905 652.315 202.409 652.011 201.761C651.707 201.105 651.555 200.329 651.555 199.433C651.555 198.537 651.707 197.765 652.011 197.117C652.315 196.461 652.731 195.965 653.259 195.629C653.787 195.285 654.387 195.113 655.059 195.113C655.731 195.113 656.331 195.285 656.859 195.629C657.395 195.965 657.815 196.461 658.119 197.117C658.423 197.765 658.575 198.537 658.575 199.433C658.575 200.329 658.423 201.105 658.119 201.761C657.815 202.409 657.395 202.905 656.859 203.249C656.331 203.585 655.731 203.753 655.059 203.753ZM655.059 202.397C655.659 202.397 656.131 202.149 656.475 201.653C656.827 201.157 657.003 200.417 657.003 199.433C657.003 198.449 656.827 197.709 656.475 197.213C656.131 196.717 655.659 196.469 655.059 196.469C654.467 196.469 653.995 196.717 653.643 197.213C653.299 197.709 653.127 198.449 653.127 199.433C653.127 200.417 653.299 201.157 653.643 201.653C653.995 202.149 654.467 202.397 655.059 202.397Z" fill="#BDBDBD"/>
<path d="M683.26 231.725V232.769L679.996 240.125H678.328L681.484 233.045H678.184V234.473H676.732V231.725H683.26ZM684.576 238.217C684.856 238.217 685.088 238.309 685.272 238.493C685.456 238.677 685.548 238.917 685.548 239.213C685.548 239.341 685.528 239.477 685.488 239.621C685.456 239.757 685.384 239.965 685.272 240.245L684.66 241.937H683.688L684.168 240.101C683.992 240.029 683.852 239.917 683.748 239.765C683.652 239.605 683.604 239.421 683.604 239.213C683.604 238.917 683.696 238.677 683.88 238.493C684.064 238.309 684.296 238.217 684.576 238.217ZM689.389 231.605C690.541 231.605 691.433 231.965 692.065 232.685C692.705 233.405 693.025 234.437 693.025 235.781C693.025 236.725 692.853 237.533 692.509 238.205C692.165 238.869 691.681 239.377 691.057 239.729C690.441 240.073 689.725 240.245 688.909 240.245C688.477 240.245 688.069 240.201 687.685 240.113C687.309 240.017 686.981 239.881 686.701 239.705L687.277 238.529C687.693 238.801 688.225 238.937 688.873 238.937C689.681 238.937 690.313 238.689 690.769 238.193C691.225 237.697 691.453 236.981 691.453 236.045V236.033C691.205 236.321 690.889 236.541 690.505 236.693C690.121 236.837 689.689 236.909 689.209 236.909C688.657 236.909 688.161 236.805 687.721 236.597C687.281 236.381 686.937 236.077 686.689 235.685C686.441 235.293 686.317 234.841 686.317 234.329C686.317 233.785 686.453 233.309 686.725 232.901C686.997 232.485 687.365 232.165 687.829 231.941C688.293 231.717 688.813 231.605 689.389 231.605ZM689.509 235.685C690.013 235.685 690.421 235.549 690.733 235.277C691.053 235.005 691.213 234.661 691.213 234.245C691.213 233.837 691.057 233.501 690.745 233.237C690.441 232.965 690.017 232.829 689.473 232.829C688.985 232.829 688.589 232.961 688.285 233.225C687.981 233.481 687.829 233.825 687.829 234.257C687.829 234.697 687.981 235.045 688.285 235.301C688.589 235.557 688.997 235.685 689.509 235.685ZM696.926 231.725V240.125H695.366V233.033H693.59V231.725H696.926ZM702.096 240.245C701.424 240.245 700.824 240.077 700.296 239.741C699.768 239.397 699.352 238.901 699.048 238.253C698.744 237.597 698.592 236.821 698.592 235.925C698.592 235.029 698.744 234.257 699.048 233.609C699.352 232.953 699.768 232.457 700.296 232.121C700.824 231.777 701.424 231.605 702.096 231.605C702.768 231.605 703.368 231.777 703.896 232.121C704.432 232.457 704.852 232.953 705.156 233.609C705.46 234.257 705.612 235.029 705.612 235.925C705.612 236.821 705.46 237.597 705.156 238.253C704.852 238.901 704.432 239.397 703.896 239.741C703.368 240.077 702.768 240.245 702.096 240.245ZM702.096 238.889C702.696 238.889 703.168 238.641 703.512 238.145C703.864 237.649 704.04 236.909 704.04 235.925C704.04 234.941 703.864 234.201 703.512 233.705C703.168 233.209 702.696 232.961 702.096 232.961C701.504 232.961 701.032 233.209 700.68 233.705C700.336 234.201 700.164 234.941 700.164 235.925C700.164 236.909 700.336 237.649 700.68 238.145C701.032 238.641 701.504 238.889 702.096 238.889Z" fill="#BDBDBD"/>
<path d="M475.651 205.233V213.633H474.091V206.541H472.315V205.233H475.651ZM480.821 213.753C480.149 213.753 479.549 213.585 479.021 213.249C478.493 212.905 478.077 212.409 477.773 211.761C477.469 211.105 477.317 210.329 477.317 209.433C477.317 208.537 477.469 207.765 477.773 207.117C478.077 206.461 478.493 205.965 479.021 205.629C479.549 205.285 480.149 205.113 480.821 205.113C481.493 205.113 482.093 205.285 482.621 205.629C483.157 205.965 483.577 206.461 483.881 207.117C484.185 207.765 484.337 208.537 484.337 209.433C484.337 210.329 484.185 211.105 483.881 211.761C483.577 212.409 483.157 212.905 482.621 213.249C482.093 213.585 481.493 213.753 480.821 213.753ZM480.821 212.397C481.421 212.397 481.893 212.149 482.237 211.653C482.589 211.157 482.765 210.417 482.765 209.433C482.765 208.449 482.589 207.709 482.237 207.213C481.893 206.717 481.421 206.469 480.821 206.469C480.229 206.469 479.757 206.717 479.405 207.213C479.061 207.709 478.889 208.449 478.889 209.433C478.889 210.417 479.061 211.157 479.405 211.653C479.757 212.149 480.229 212.397 480.821 212.397ZM486.199 211.725C486.479 211.725 486.711 211.817 486.895 212.001C487.079 212.185 487.171 212.425 487.171 212.721C487.171 212.849 487.151 212.985 487.111 213.129C487.079 213.265 487.007 213.473 486.895 213.753L486.283 215.445H485.311L485.791 213.609C485.615 213.537 485.475 213.425 485.371 213.273C485.275 213.113 485.227 212.929 485.227 212.721C485.227 212.425 485.319 212.185 485.503 212.001C485.687 211.817 485.919 211.725 486.199 211.725ZM491.544 213.753C490.872 213.753 490.272 213.585 489.744 213.249C489.216 212.905 488.8 212.409 488.496 211.761C488.192 211.105 488.04 210.329 488.04 209.433C488.04 208.537 488.192 207.765 488.496 207.117C488.8 206.461 489.216 205.965 489.744 205.629C490.272 205.285 490.872 205.113 491.544 205.113C492.216 205.113 492.816 205.285 493.344 205.629C493.88 205.965 494.3 206.461 494.604 207.117C494.908 207.765 495.06 208.537 495.06 209.433C495.06 210.329 494.908 211.105 494.604 211.761C494.3 212.409 493.88 212.905 493.344 213.249C492.816 213.585 492.216 213.753 491.544 213.753ZM491.544 212.397C492.144 212.397 492.616 212.149 492.96 211.653C493.312 211.157 493.488 210.417 493.488 209.433C493.488 208.449 493.312 207.709 492.96 207.213C492.616 206.717 492.144 206.469 491.544 206.469C490.952 206.469 490.48 206.717 490.128 207.213C489.784 207.709 489.612 208.449 489.612 209.433C489.612 210.417 489.784 211.157 490.128 211.653C490.48 212.149 490.952 212.397 491.544 212.397ZM502.139 212.313V213.633H495.947V212.589L499.283 209.421C499.659 209.061 499.911 208.749 500.039 208.485C500.175 208.213 500.243 207.945 500.243 207.681C500.243 207.289 500.111 206.989 499.847 206.781C499.583 206.573 499.195 206.469 498.683 206.469C497.827 206.469 497.171 206.761 496.715 207.345L495.623 206.505C495.951 206.065 496.391 205.725 496.943 205.485C497.503 205.237 498.127 205.113 498.815 205.113C499.727 205.113 500.455 205.329 500.999 205.761C501.543 206.193 501.815 206.781 501.815 207.525C501.815 207.981 501.719 208.409 501.527 208.809C501.335 209.209 500.967 209.665 500.423 210.177L498.179 212.313H502.139ZM506.509 213.753C505.837 213.753 505.237 213.585 504.709 213.249C504.181 212.905 503.765 212.409 503.461 211.761C503.157 211.105 503.005 210.329 503.005 209.433C503.005 208.537 503.157 207.765 503.461 207.117C503.765 206.461 504.181 205.965 504.709 205.629C505.237 205.285 505.837 205.113 506.509 205.113C507.181 205.113 507.781 205.285 508.309 205.629C508.845 205.965 509.265 206.461 509.569 207.117C509.873 207.765 510.025 208.537 510.025 209.433C510.025 210.329 509.873 211.105 509.569 211.761C509.265 212.409 508.845 212.905 508.309 213.249C507.781 213.585 507.181 213.753 506.509 213.753ZM506.509 212.397C507.109 212.397 507.581 212.149 507.925 211.653C508.277 211.157 508.453 210.417 508.453 209.433C508.453 208.449 508.277 207.709 507.925 207.213C507.581 206.717 507.109 206.469 506.509 206.469C505.917 206.469 505.445 206.717 505.093 207.213C504.749 207.709 504.577 208.449 504.577 209.433C504.577 210.417 504.749 211.157 505.093 211.653C505.445 212.149 505.917 212.397 506.509 212.397Z" fill="#BDBDBD"/>
<path d="M671.729 253.804C671.729 250.115 674.719 247.125 678.408 247.125H705.125C708.814 247.125 711.805 250.115 711.805 253.804V276.686H671.729V253.804Z" fill="#E0E0E0"/>
<path fill-rule="evenodd" clip-rule="evenodd" d="M401.583 277.141L731.583 276.623L731.584 277.312L401.584 277.83L401.583 277.141Z" fill="#BDBDBD"/>
<rect x="242" y="336.6" width="320" height="58" rx="29" fill="#FFEEEF"/>
<path d="M278.233 358.92V361.04H286.153V358.92H278.233ZM280.513 363.06V367.64H283.153V363.06H280.513ZM285.113 358.92V360.12C285.113 361.36 285.113 362.82 284.733 364.8L287.313 365C287.733 362.98 287.733 361.36 287.733 360.12V358.92H285.113ZM289.533 357.92V369.2H292.213V357.92H289.533ZM291.153 362.46V364.66H294.433V362.46H291.153ZM277.413 368.46C280.693 368.46 284.893 368.38 288.693 367.72L288.533 365.84C284.833 366.3 280.473 366.34 277.153 366.34L277.413 368.46ZM285.953 369.42C282.013 369.42 279.553 370.74 279.553 372.9C279.553 375.12 282.013 376.42 285.953 376.42C289.893 376.42 292.373 375.12 292.373 372.9C292.373 370.74 289.893 369.42 285.953 369.42ZM285.953 371.46C288.353 371.46 289.633 371.94 289.633 372.9C289.633 373.9 288.353 374.36 285.953 374.36C283.573 374.36 282.253 373.9 282.253 372.9C282.253 371.94 283.573 371.46 285.953 371.46ZM297.131 359.48V361.62H308.871V359.48H297.131ZM295.431 372.06V374.22H312.171V372.06H295.431ZM301.351 365.7V373.12H304.011V365.7H301.351ZM307.911 359.48V361.26C307.911 363.48 307.911 366.16 307.171 369.84L309.831 370.14C310.571 366.18 310.571 363.58 310.571 361.26V359.48H307.911ZM319.461 359V361.1H331.081V359H319.461ZM317.561 366.88V369.02H334.301V366.88H317.561ZM324.501 368.38V376.46H327.181V368.38H324.501ZM329.721 359V360.64C329.721 362.56 329.721 364.76 329.001 367.86L331.621 368.16C332.341 364.88 332.341 362.64 332.341 360.64V359H329.721ZM348.919 357.92V376.44H351.459V357.92H348.919ZM346.699 364.98V367.12H349.759V364.98H346.699ZM344.859 358.2V375.6H347.359V358.2H344.859ZM336.059 359.82V371.82H343.379V359.82H336.059ZM340.899 361.9V369.74H338.539V361.9H340.899ZM365.418 357.92V376.44H368.058V357.92H365.418ZM367.458 365.14V367.36H370.738V365.14H367.458ZM353.458 360.66V362.78H364.238V360.66H353.458ZM358.878 363.82C356.178 363.82 354.178 365.66 354.178 368.24C354.178 370.82 356.178 372.66 358.878 372.66C361.578 372.66 363.578 370.82 363.578 368.24C363.578 365.66 361.578 363.82 358.878 363.82ZM358.878 365.98C360.138 365.98 361.038 366.82 361.038 368.24C361.038 369.66 360.138 370.5 358.878 370.5C357.618 370.5 356.718 369.66 356.718 368.24C356.718 366.82 357.618 365.98 358.878 365.98ZM357.538 358.22V361.46H360.198V358.22H357.538ZM373.256 359.48V361.62H384.996V359.48H373.256ZM371.556 372.06V374.22H388.296V372.06H371.556ZM377.476 365.7V373.12H380.136V365.7H377.476ZM384.036 359.48V361.26C384.036 363.48 384.036 366.16 383.296 369.84L385.956 370.14C386.696 366.18 386.696 363.58 386.696 361.26V359.48H384.036ZM397.666 369.28V373.94H400.306V369.28H397.666ZM403.746 369.28V373.94H406.366V369.28H403.746ZM394.386 360.24V362.36H409.666V360.24H394.386ZM393.686 372.48V374.62H410.446V372.48H393.686ZM402.006 363.12C398.126 363.12 395.726 364.44 395.726 366.7C395.726 368.94 398.126 370.24 402.006 370.24C405.886 370.24 408.286 368.94 408.286 366.7C408.286 364.44 405.886 363.12 402.006 363.12ZM402.006 365.16C404.326 365.16 405.566 365.66 405.566 366.7C405.566 367.72 404.326 368.2 402.006 368.2C399.666 368.2 398.446 367.72 398.446 366.7C398.446 365.66 399.666 365.16 402.006 365.16ZM400.706 358.12V361.56H403.346V358.12H400.706ZM412.444 359.76V361.86H420.424V359.76H412.444ZM414.824 365.06V371.34H417.444V365.06H414.824ZM419.364 359.76V361.26C419.364 363.04 419.364 365.18 418.884 368.14L421.484 368.38C421.984 365.3 421.984 363.06 421.984 361.26V359.76H419.364ZM423.564 357.92V376.44H426.224V357.92H423.564ZM425.444 365.36V367.56H428.704V365.36H425.444ZM411.744 372.7C414.964 372.7 419.124 372.62 422.864 371.98L422.724 370.04C419.084 370.5 414.764 370.56 411.504 370.56L411.744 372.7ZM433.794 367.12V369.22H450.534V367.12H433.794ZM435.654 370.6V372.68H445.854V376.44H448.514V370.6H435.654ZM440.834 357.98V360.7H443.474V357.98H440.834ZM440.674 360.9V361.28C440.674 362.7 438.954 364.14 434.494 364.42L435.294 366.42C440.334 366.06 443.014 364.08 443.014 361.28V360.9H440.674ZM441.294 360.9V361.28C441.294 364.08 443.954 366.06 449.014 366.42L449.814 364.42C445.354 364.14 443.634 362.7 443.634 361.28V360.9H441.294ZM435.394 359.64V361.7H448.934V359.64H435.394ZM461.832 362.4V364.56H465.352V362.4H461.832ZM464.632 357.92V368.92H467.292V357.92H464.632ZM461.012 369.32C457.092 369.32 454.672 370.66 454.672 372.9C454.672 375.16 457.092 376.46 461.012 376.46C464.932 376.46 467.352 375.16 467.352 372.9C467.352 370.66 464.932 369.32 461.012 369.32ZM461.012 371.34C463.432 371.34 464.712 371.84 464.712 372.9C464.712 373.94 463.432 374.44 461.012 374.44C458.612 374.44 457.332 373.94 457.332 372.9C457.332 371.84 458.612 371.34 461.012 371.34ZM456.072 359.78V360.94C456.072 363.32 454.752 365.78 451.692 366.82L453.052 368.92C456.592 367.72 458.232 364.48 458.232 360.94V359.78H456.072ZM456.632 359.78V360.94C456.632 364.24 458.212 367.32 461.652 368.46L462.952 366.36C460.032 365.38 458.772 363.12 458.772 360.94V359.78H456.632ZM452.412 359.04V361.16H462.372V359.04H452.412ZM481.671 357.92V376.44H484.311V357.92H481.671ZM483.711 365.14V367.36H486.991V365.14H483.711ZM469.711 360.66V362.78H480.491V360.66H469.711ZM475.131 363.82C472.431 363.82 470.431 365.66 470.431 368.24C470.431 370.82 472.431 372.66 475.131 372.66C477.831 372.66 479.831 370.82 479.831 368.24C479.831 365.66 477.831 363.82 475.131 363.82ZM475.131 365.98C476.391 365.98 477.291 366.82 477.291 368.24C477.291 369.66 476.391 370.5 475.131 370.5C473.871 370.5 472.971 369.66 472.971 368.24C472.971 366.82 473.871 365.98 475.131 365.98ZM473.791 358.22V361.46H476.451V358.22H473.791ZM500.549 357.92V376.44H503.229V357.92H500.549ZM495.089 359.84V360.32C495.089 365.28 493.169 368.64 487.849 371.2L489.229 373.32C495.809 370.14 497.729 365.5 497.729 359.84H495.089ZM488.829 359.84V361.94H496.349V359.84H488.829Z" fill="#FF4D56"/>
<path d="M513.5 366.523C512.948 366.523 512.5 366.971 512.5 367.523C512.5 368.076 512.948 368.523 513.5 368.523L513.5 366.523ZM532.207 368.231C532.598 367.84 532.598 367.207 532.207 366.816L525.843 360.452C525.453 360.062 524.819 360.062 524.429 360.452C524.038 360.843 524.038 361.476 524.429 361.867L530.086 367.523L524.429 373.18C524.038 373.571 524.038 374.204 524.429 374.595C524.819 374.985 525.453 374.985 525.843 374.595L532.207 368.231ZM513.5 368.523L531.5 368.523L531.5 366.523L513.5 366.523L513.5 368.523Z" fill="#FF4D56"/>
<defs>
<filter id="filter0_d_4070_3278" x="0.5" y="0.412109" width="803" height="450" filterUnits="userSpaceOnUse" color-interpolation-filters="sRGB">
<feFlood flood-opacity="0" result="BackgroundImageFix"/>
<feColorMatrix in="SourceAlpha" type="matrix" values="0 0 0 0 0 0 0 0 0 0 0 0 0 0 0 0 0 0 127 0" result="hardAlpha"/>
<feOffset/>
<feGaussianBlur stdDeviation="15"/>
<feComposite in2="hardAlpha" operator="out"/>
<feColorMatrix type="matrix" values="0 0 0 0 0 0 0 0 0 0 0 0 0 0 0 0 0 0 0.07 0"/>
<feBlend mode="normal" in2="BackgroundImageFix" result="effect1_dropShadow_4070_3278"/>
<feBlend mode="normal" in="SourceGraphic" in2="effect1_dropShadow_4070_3278" result="shape"/>
</filter>
</defs>
</svg>
