<svg width="21" height="16" viewBox="0 0 21 16" fill="none" xmlns="http://www.w3.org/2000/svg">
<path d="M20.4942 1.93666C19.7669 2.25566 18.992 2.46711 18.1842 2.56978C19.0153 2.07355 19.6496 1.29378 19.9478 0.353886C19.1729 0.815886 18.3174 1.14222 17.4056 1.32433C16.6698 0.540886 15.6212 0.0556641 14.4772 0.0556641C12.2576 0.0556641 10.4707 1.85722 10.4707 4.06578C10.4707 4.38355 10.4976 4.68911 10.5636 4.98C7.2306 4.81744 4.28138 3.22 2.30015 0.786553C1.95427 1.38666 1.75138 2.07355 1.75138 2.813C1.75138 4.20144 2.46638 5.43222 3.53215 6.14478C2.88804 6.13255 2.25615 5.94555 1.72082 5.651C1.72082 5.66322 1.72082 5.67911 1.72082 5.695C1.72082 7.64322 3.11049 9.26144 4.93282 9.63422C4.60649 9.72344 4.25082 9.76622 3.88171 9.76622C3.62504 9.76622 3.36593 9.75155 3.12271 9.69777C3.64215 11.2854 5.11615 12.4527 6.86882 12.4906C5.50482 13.5576 3.77293 14.2004 1.89804 14.2004C1.56927 14.2004 1.25393 14.1858 0.938599 14.1454C2.71449 15.2907 4.81915 15.9446 7.08882 15.9446C14.4662 15.9446 18.4995 9.83344 18.4995 4.53633C18.4995 4.35911 18.4934 4.188 18.4848 4.01811C19.2805 3.45344 19.949 2.74822 20.4942 1.93666Z" fill="#747474"/>
</svg>
