<svg width="28" height="27" viewBox="0 0 28 27" fill="none" xmlns="http://www.w3.org/2000/svg">
<path d="M10.4766 11.4999H13.8099C14.1635 11.4999 14.5027 11.3594 14.7527 11.1094C15.0028 10.8593 15.1432 10.5202 15.1432 10.1666C15.1432 9.81293 15.0028 9.47379 14.7527 9.22375C14.5027 8.9737 14.1635 8.83322 13.8099 8.83322H12.4766V8.16655C12.4766 7.81293 12.3361 7.47379 12.086 7.22375C11.836 6.9737 11.4969 6.83322 11.1432 6.83322C10.7896 6.83322 10.4505 6.9737 10.2004 7.22375C9.95038 7.47379 9.80991 7.81293 9.80991 8.16655V8.89989C8.9998 9.06438 8.27972 9.52402 7.78945 10.1896C7.29917 10.8551 7.07369 11.6791 7.15677 12.5016C7.23984 13.324 7.62555 14.0862 8.23902 14.6403C8.85248 15.1944 9.64994 15.5007 10.4766 15.4999H11.8099C11.9867 15.4999 12.1563 15.5701 12.2813 15.6952C12.4063 15.8202 12.4766 15.9897 12.4766 16.1666C12.4766 16.3434 12.4063 16.5129 12.2813 16.638C12.1563 16.763 11.9867 16.8332 11.8099 16.8332H8.47657C8.12295 16.8332 7.78381 16.9737 7.53376 17.2237C7.28371 17.4738 7.14324 17.8129 7.14324 18.1666C7.14324 18.5202 7.28371 18.8593 7.53376 19.1094C7.78381 19.3594 8.12295 19.4999 8.47657 19.4999H9.80991V20.1666C9.80991 20.5202 9.95038 20.8593 10.2004 21.1094C10.4505 21.3594 10.7896 21.4999 11.1432 21.4999C11.4969 21.4999 11.836 21.3594 12.086 21.1094C12.3361 20.8593 12.4766 20.5202 12.4766 20.1666V19.4332C13.2867 19.2687 14.0068 18.8091 14.497 18.1435C14.9873 17.478 15.2128 16.654 15.1297 15.8316C15.0466 15.0091 14.6609 14.2469 14.0475 13.6928C13.434 13.1387 12.6365 12.8324 11.8099 12.8332H10.4766C10.2998 12.8332 10.1302 12.763 10.0052 12.638C9.88014 12.5129 9.80991 12.3434 9.80991 12.1666C9.80991 11.9897 9.88014 11.8202 10.0052 11.6952C10.1302 11.5701 10.2998 11.4999 10.4766 11.4999ZM25.8099 13.4999H21.8099V1.49989C21.8108 1.26494 21.7497 1.03392 21.6326 0.830216C21.5155 0.626512 21.3467 0.45736 21.1432 0.339888C20.9405 0.222863 20.7106 0.161255 20.4766 0.161255C20.2425 0.161255 20.0126 0.222863 19.8099 0.339888L15.8099 2.63322L11.8099 0.339888C11.6072 0.222863 11.3773 0.161255 11.1432 0.161255C10.9092 0.161255 10.6793 0.222863 10.4766 0.339888L6.47657 2.63322L2.47657 0.339888C2.27388 0.222863 2.04395 0.161255 1.80991 0.161255C1.57586 0.161255 1.34593 0.222863 1.14324 0.339888C0.939767 0.45736 0.770948 0.626512 0.653877 0.830216C0.536806 1.03392 0.47564 1.26494 0.476573 1.49989V22.8332C0.476573 23.8941 0.898 24.9115 1.64815 25.6616C2.39829 26.4118 3.41571 26.8332 4.47657 26.8332H23.1432C24.2041 26.8332 25.2215 26.4118 25.9717 25.6616C26.7218 24.9115 27.1432 23.8941 27.1432 22.8332V14.8332C27.1432 14.4796 27.0028 14.1405 26.7527 13.8904C26.5027 13.6404 26.1635 13.4999 25.8099 13.4999ZM4.47657 24.1666C4.12295 24.1666 3.78381 24.0261 3.53376 23.776C3.28372 23.526 3.14324 23.1868 3.14324 22.8332V3.80655L5.80991 5.32655C6.01569 5.43404 6.24441 5.49017 6.47657 5.49017C6.70873 5.49017 6.93746 5.43404 7.14324 5.32655L11.1432 3.03322L15.1432 5.32655C15.349 5.43404 15.5777 5.49017 15.8099 5.49017C16.0421 5.49017 16.2708 5.43404 16.4766 5.32655L19.1432 3.80655V22.8332C19.1468 23.2881 19.228 23.739 19.3832 24.1666H4.47657ZM24.4766 22.8332C24.4766 23.1868 24.3361 23.526 24.086 23.776C23.836 24.0261 23.4969 24.1666 23.1432 24.1666C22.7896 24.1666 22.4505 24.0261 22.2004 23.776C21.9504 23.526 21.8099 23.1868 21.8099 22.8332V16.1666H24.4766V22.8332Z" fill="#4F4F4F"/>
</svg>
